# 3ds Max Wavefront OBJ Exporter v0.99 - (c)2007 guruware
# File Created: 28.12.2022 17:56:39

mtllib Casa Romana.mtl

#
# object Box001
#

v  -9.2740 0.0506 9.7983
v  -9.3678 0.0000 -9.7836
v  10.2142 0.0000 -9.7836
v  10.1204 0.0506 9.7983
v  -9.2740 0.0506 19.9478
v  10.1204 0.0506 19.9478
v  10.1204 10.5009 19.9478
v  -9.2740 10.5009 19.9478
v  -9.2740 10.5009 9.7983
v  -9.3678 10.5515 -9.7836
v  10.1204 0.0506 9.9098
v  -9.2740 0.0506 9.9098
v  10.1204 10.5009 9.7983
v  10.1204 14.9011 9.8173
v  -9.2740 14.9011 9.8173
v  5.9628 7.6022 5.6132
v  -5.1164 7.6022 5.6132
v  10.2142 10.5515 -9.7836
v  6.0166 7.6368 -5.5984
v  -5.1701 7.6368 -5.5984
v  -7.6478 13.4846 10.9750
v  -7.6478 10.3801 18.1224
v  8.4942 10.3801 18.1224
v  8.4942 13.4846 10.9750
v  -1.6747 0.0004 -9.7836
v  2.5211 0.0004 -9.7836
v  -2.0197 8.2494 -9.7836
v  -1.6747 6.2130 -9.7836
v  2.8661 8.2494 -9.7836
v  2.5211 6.2130 -9.7836
v  10.2061 0.0492 -2.2459
v  10.1284 0.0862 2.2606
v  10.2065 8.2050 -2.5879
v  10.2061 6.2006 -2.2459
v  10.1281 8.1626 2.5937
v  10.1284 6.1636 2.2606
v  13.0926 6.3868 -2.2253
v  13.0149 6.3498 2.2812
v  -1.6747 6.3992 -12.6455
v  2.5211 6.3992 -12.6455
v  8.4942 11.1488 18.4562
v  -7.6478 11.1488 18.4562
v  8.4942 14.2533 11.3089
v  -7.6478 14.2533 11.3089
# 44 vertices

vn -0.7069 -0.7074 0.0026
vn -0.5787 -0.5779 -0.5754
vn 0.5775 -0.5781 -0.5764
vn 0.7073 -0.7069 0.0013
vn -0.5774 -0.5774 0.5774
vn 0.5774 -0.5774 0.5774
vn 0.6020 0.4379 0.6677
vn -0.6020 0.4379 0.6677
vn -0.8566 0.2979 -0.4214
vn -0.5113 0.6932 -0.5080
vn 0.7071 -0.7071 -0.0000
vn -0.7071 -0.7071 -0.0000
vn 0.8564 0.2971 -0.4223
vn 0.5590 0.6943 -0.4533
vn -0.5590 0.6943 -0.4533
vn -0.3124 0.8975 -0.3113
vn 0.3124 0.8975 -0.3113
vn 0.5101 0.6933 -0.5091
vn -0.3120 0.8974 0.3120
vn 0.3120 0.8974 0.3120
vn 0.5774 0.2995 0.7596
vn 0.5774 0.7596 -0.2995
vn -0.5774 0.7596 -0.2995
vn -0.5774 0.2995 0.7596
vn 0.0000 0.0000 -1.0000
vn -0.1661 0.1821 -0.9691
vn -0.4437 -0.0752 -0.8930
vn 0.1661 0.1821 -0.9691
vn 0.4437 -0.0752 -0.8930
vn 0.3748 -0.9271 0.0065
vn 0.8222 0.5692 0.0036
vn 0.9663 0.2047 -0.1559
vn 0.8938 -0.0756 -0.4420
vn 0.9696 0.1647 0.1810
vn 0.8922 -0.0741 0.4455
vn 0.5301 0.7710 -0.3528
vn 0.5211 0.7645 0.3793
vn -0.3724 0.7582 -0.5351
vn 0.3724 0.7582 -0.5351
vn -0.3015 0.9498 0.0838
vn 0.3015 0.9498 0.0838
vn -0.3015 0.7095 0.6369
vn 0.3015 0.7095 0.6369
# 43 vertex normals

vt 0.9505 0.3051 0.0000
vt 0.9515 0.5936 0.0000
vt 0.6631 0.5932 0.0000
vt 0.6648 0.3048 0.0000
vt 0.3452 0.6368 0.0000
vt 0.5549 0.6550 0.0000
vt 0.5506 0.7847 0.0000
vt 0.3375 0.7636 0.0000
vt 0.6631 0.8453 0.0000
vt 0.9485 0.8035 0.0000
vt 0.9711 0.9558 0.0000
vt 0.6860 0.9990 0.0000
vt 0.2793 0.5317 0.0000
vt 0.2895 0.2377 0.0000
vt 0.2912 0.2377 0.0000
vt 0.2810 0.5318 0.0000
vt 0.2950 0.0792 0.0000
vt 0.2976 0.0125 0.0000
vt 0.0010 0.0677 0.0000
vt 0.0036 0.0010 0.0000
vt 0.2363 0.7383 0.0000
vt 0.2184 0.8252 0.0000
vt 0.2989 0.0282 0.0000
vt 0.5904 0.0010 0.0000
vt 0.5275 0.0749 0.0000
vt 0.3726 0.0915 0.0000
vt 0.6192 0.2949 0.0000
vt 0.5449 0.2316 0.0000
vt 0.3251 0.3224 0.0000
vt 0.3886 0.2483 0.0000
vt 0.6620 0.6173 0.0000
vt 0.5722 0.9398 0.0000
vt 0.4096 0.4029 0.0000
vt 0.6631 0.1833 0.0000
vt 0.8866 0.0010 0.0000
vt 0.7988 0.0726 0.0000
vt 0.7509 0.1117 0.0000
vt 0.9848 0.1214 0.0000
vt 0.8795 0.1636 0.0000
vt 0.8566 0.1435 0.0000
vt 0.7613 0.3037 0.0000
vt 0.8237 0.2091 0.0000
vt 0.8087 0.1826 0.0000
vt 0.6931 0.5946 0.0000
vt 0.9760 0.6498 0.0000
vt 0.8670 0.6292 0.0000
vt 0.8018 0.6171 0.0000
vt 0.9460 0.8025 0.0000
vt 0.8487 0.7480 0.0000
vt 0.8495 0.7181 0.0000
vt 0.6631 0.7458 0.0000
vt 0.7739 0.7326 0.0000
vt 0.7844 0.7047 0.0000
vt 0.4289 0.2133 0.0000
vt 0.3953 0.1756 0.0000
vt 0.4370 0.1844 0.0000
vt 0.3953 0.1404 0.0000
vt 0.4223 0.0977 0.0000
vt 0.4817 0.1273 0.0000
vt 0.4636 0.1745 0.0000
vt 0.4615 0.4009 0.0000
vt 0.5039 0.4048 0.0000
vt 0.4607 0.4307 0.0000
vt 0.3925 0.4258 0.0000
vt 0.3421 0.4273 0.0000
vt 0.3750 0.4009 0.0000
vt 0.0172 0.1590 0.0000
vt 0.0010 0.1112 0.0000
vt 0.0572 0.0856 0.0000
vt 0.0827 0.1291 0.0000
vt 0.4827 0.1274 0.0000
vt 0.5128 0.0977 0.0000
vt 0.5054 0.1476 0.0000
vt 0.5316 0.8068 0.0000
vt 0.3440 0.7870 0.0000
vt 0.5418 0.9110 0.0000
vt 0.2668 0.8318 0.0000
vt 0.3358 0.3235 0.0000
vt 0.5675 0.3929 0.0000
vt 0.5576 0.3989 0.0000
vt 0.3399 0.3343 0.0000
vt 0.5307 0.5160 0.0000
vt 0.5266 0.5052 0.0000
vt 0.2989 0.4465 0.0000
vt 0.3088 0.4406 0.0000
# 85 texture coords

o Box001
g Box001
usemtl wire_086086086
s 2
f 1/1/1 2/2/2 3/3/3 4/4/4 
s 8
f 5/5/5 6/6/6 7/7/7 8/8/8 
s 64
f 2/9/2 1/10/1 9/11/9 10/12/10 
s off
f 1/13/1 4/14/4 11/15/11 12/16/12 
f 4/14/4 13/17/13 14/18/14 11/15/11 
f 13/17/13 9/19/9 15/20/15 14/18/14 
f 9/21/9 1/13/1 12/16/12 15/22/15 
f 9/23/9 13/24/13 16/25/16 17/26/17 
f 13/24/13 18/27/18 19/28/19 16/25/16 
f 18/27/18 10/29/10 20/30/20 19/28/19 
f 10/29/10 9/23/9 17/26/17 20/30/20 
f 11/31/11 6/6/6 5/5/5 12/16/12 
f 14/32/14 7/7/7 6/6/6 11/31/11 
f 21/33/21 22/33/22 23/33/23 24/33/24 
f 12/16/12 5/5/5 8/8/8 15/22/15 
f 3/34/3 2/35/2 25/36/25 26/37/25 
f 2/35/2 10/38/10 27/39/26 28/40/27 25/36/25 
f 10/38/10 18/41/18 29/42/28 27/39/26 
f 18/41/18 3/34/3 26/37/25 30/43/29 29/42/28 
f 4/44/4 3/45/3 31/46/30 32/47/31 
f 3/45/3 18/48/18 33/49/32 34/50/33 31/46/30 
f 18/48/18 13/51/13 35/52/34 33/49/32 
f 13/51/13 4/44/4 32/47/31 36/53/35 35/52/34 
f 33/54/32 37/55/36 34/56/33 
f 35/57/34 38/58/37 37/59/36 33/60/32 
f 36/61/35 38/62/37 35/63/34 
f 27/64/26 39/65/38 28/66/27 
f 29/67/28 40/68/39 39/69/38 27/70/26 
f 30/71/29 40/72/39 29/73/28 
f 8/8/8 7/7/7 41/74/40 42/75/41 
f 7/7/7 14/32/14 43/76/42 41/74/40 
f 14/32/14 15/22/15 44/77/43 43/76/42 
f 15/22/15 8/8/8 42/75/41 44/77/43 
f 42/78/41 41/79/40 23/80/23 22/81/22 
f 41/79/40 43/82/42 24/83/24 23/80/23 
f 43/82/42 44/84/43 21/85/21 24/83/24 
f 44/84/43 42/78/41 22/81/22 21/85/21 
# 33 polygons - 4 triangles

#
# object Box002
#

v  4.7755 0.0000 6.9974
v  4.7755 0.0000 4.4633
v  7.3096 0.0000 4.4633
v  7.3096 0.0000 6.9974
v  4.8729 7.3959 6.9001
v  7.2123 7.3959 6.9001
v  7.2123 7.3959 4.5607
v  4.8729 7.3959 4.5607
v  7.3096 1.2452 6.9974
v  4.7755 1.2452 6.9974
v  7.3096 1.2452 4.4633
v  4.7755 1.2452 4.4633
v  7.0378 1.2452 6.7256
v  5.0474 1.2452 6.7256
v  7.0378 1.2452 4.7352
v  5.0474 1.2452 4.7352
v  7.0378 6.0504 6.7256
v  5.0474 6.0504 6.7256
v  7.0378 6.0504 4.7352
v  5.0474 6.0504 4.7352
v  7.2123 6.0833 6.9001
v  4.8729 6.0833 6.9001
v  7.2123 6.0833 4.5607
v  4.8729 6.0833 4.5607
# 24 vertices

vn -0.5774 -0.5774 0.5774
vn -0.5774 -0.5774 -0.5774
vn 0.5774 -0.5774 -0.5774
vn 0.5774 -0.5774 0.5774
vn -0.5774 0.5774 0.5774
vn 0.5774 0.5774 0.5774
vn 0.5774 0.5774 -0.5774
vn -0.5774 0.5774 -0.5774
vn 0.3015 0.9045 0.3015
vn -0.3015 0.9045 0.3015
vn 0.3015 0.9045 -0.3015
vn -0.3015 0.9045 -0.3015
vn 0.3703 -0.8520 0.3703
vn -0.3703 -0.8520 0.3703
vn 0.3703 -0.8520 -0.3703
vn -0.3703 -0.8520 -0.3703
vn 0.5949 -0.5405 0.5949
vn -0.5949 -0.5405 0.5949
vn 0.5949 -0.5405 -0.5949
vn -0.5949 -0.5405 -0.5949
# 20 vertex normals

vt 1.0000 0.0000 0.0000
vt 1.0000 1.0000 0.0000
vt 0.0000 1.0000 0.0000
vt 0.0000 0.0000 0.0000
# 4 texture coords

o Box002
g Box002
usemtl wire_196088225
s 2
f 45/86/44 46/87/45 47/88/46 48/89/47 
s 4
f 49/89/48 50/86/49 51/87/50 52/88/51 
s 8
f 45/89/44 48/86/47 53/87/49 54/88/48 
s 16
f 48/89/47 47/86/46 55/87/50 53/88/49 
s 32
f 47/89/46 46/86/45 56/87/51 55/88/50 
s 64
f 46/89/45 45/86/44 54/87/48 56/88/51 
s off
f 54/89/48 53/86/49 57/86/52 58/89/53 
f 53/86/49 55/87/50 59/87/54 57/86/52 
f 55/87/50 56/88/51 60/88/55 59/87/54 
f 56/88/51 54/89/48 58/89/53 60/88/55 
f 58/89/53 57/86/52 61/86/56 62/89/57 
f 57/86/52 59/87/54 63/87/58 61/86/56 
f 59/87/54 60/88/55 64/88/59 63/87/58 
f 60/88/55 58/89/53 62/89/57 64/88/59 
f 62/89/57 61/86/56 65/86/60 66/89/61 
f 61/86/56 63/87/58 67/87/62 65/86/60 
f 63/87/58 64/88/59 68/88/63 67/87/62 
f 64/88/59 62/89/57 66/89/61 68/88/63 
f 65/86/60 50/86/49 49/89/48 66/89/61 
f 67/87/62 51/87/50 50/86/49 65/86/60 
f 68/88/63 52/88/51 51/87/50 67/87/62 
f 66/89/61 49/89/48 52/88/51 68/88/63 
# 22 polygons

#
# object Box003
#

v  -6.2443 0.0000 6.9974
v  -6.2443 0.0000 4.4633
v  -3.7102 0.0000 4.4633
v  -3.7102 0.0000 6.9974
v  -6.1470 7.3959 6.9001
v  -3.8076 7.3959 6.9001
v  -3.8076 7.3959 4.5607
v  -6.1470 7.3959 4.5607
v  -3.7102 1.2452 6.9974
v  -6.2443 1.2452 6.9974
v  -3.7102 1.2452 4.4633
v  -6.2443 1.2452 4.4633
v  -3.9821 1.2452 6.7256
v  -5.9725 1.2452 6.7256
v  -3.9821 1.2452 4.7352
v  -5.9725 1.2452 4.7352
v  -3.9821 6.0504 6.7256
v  -5.9725 6.0504 6.7256
v  -3.9821 6.0504 4.7352
v  -5.9725 6.0504 4.7352
v  -3.8076 6.0833 6.9001
v  -6.1470 6.0833 6.9001
v  -3.8076 6.0833 4.5607
v  -6.1470 6.0833 4.5607
# 24 vertices

vn -0.5774 -0.5774 0.5774
vn -0.5774 -0.5774 -0.5774
vn 0.5774 -0.5774 -0.5774
vn 0.5774 -0.5774 0.5774
vn -0.5774 0.5774 0.5774
vn 0.5774 0.5774 0.5774
vn 0.5774 0.5774 -0.5774
vn -0.5774 0.5774 -0.5774
vn 0.3015 0.9045 0.3015
vn -0.3015 0.9045 0.3015
vn 0.3015 0.9045 -0.3015
vn -0.3015 0.9045 -0.3015
vn 0.3703 -0.8520 0.3703
vn -0.3703 -0.8520 0.3703
vn 0.3703 -0.8520 -0.3703
vn -0.3703 -0.8520 -0.3703
vn 0.5949 -0.5405 0.5949
vn -0.5949 -0.5405 0.5949
vn 0.5949 -0.5405 -0.5949
vn -0.5949 -0.5405 -0.5949
# 20 vertex normals

vt 1.0000 0.0000 0.0000
vt 1.0000 1.0000 0.0000
vt 0.0000 1.0000 0.0000
vt 0.0000 0.0000 0.0000
# 4 texture coords

o Box003
g Box003
usemtl wire_196088225
s 2
f 69/90/64 70/91/65 71/92/66 72/93/67 
s 4
f 73/93/68 74/90/69 75/91/70 76/92/71 
s 8
f 69/93/64 72/90/67 77/91/69 78/92/68 
s 16
f 72/93/67 71/90/66 79/91/70 77/92/69 
s 32
f 71/93/66 70/90/65 80/91/71 79/92/70 
s 64
f 70/93/65 69/90/64 78/91/68 80/92/71 
s off
f 78/93/68 77/90/69 81/90/72 82/93/73 
f 77/90/69 79/91/70 83/91/74 81/90/72 
f 79/91/70 80/92/71 84/92/75 83/91/74 
f 80/92/71 78/93/68 82/93/73 84/92/75 
f 82/93/73 81/90/72 85/90/76 86/93/77 
f 81/90/72 83/91/74 87/91/78 85/90/76 
f 83/91/74 84/92/75 88/92/79 87/91/78 
f 84/92/75 82/93/73 86/93/77 88/92/79 
f 86/93/77 85/90/76 89/90/80 90/93/81 
f 85/90/76 87/91/78 91/91/82 89/90/80 
f 87/91/78 88/92/79 92/92/83 91/91/82 
f 88/92/79 86/93/77 90/93/81 92/92/83 
f 89/90/80 74/90/69 73/93/68 90/93/81 
f 91/91/82 75/91/70 74/90/69 89/90/80 
f 92/92/83 76/92/71 75/91/70 91/91/82 
f 90/93/81 73/93/68 76/92/71 92/92/83 
# 22 polygons

#
# object Box004
#

v  -6.2443 0.0000 -4.3453
v  -6.2443 0.0000 -6.8794
v  -3.7102 0.0000 -6.8794
v  -3.7102 0.0000 -4.3453
v  -6.1470 7.3959 -4.4426
v  -3.8076 7.3959 -4.4426
v  -3.8076 7.3959 -6.7820
v  -6.1470 7.3959 -6.7820
v  -3.7102 1.2452 -4.3453
v  -6.2443 1.2452 -4.3453
v  -3.7102 1.2452 -6.8794
v  -6.2443 1.2452 -6.8794
v  -3.9821 1.2452 -4.6171
v  -5.9725 1.2452 -4.6171
v  -3.9821 1.2452 -6.6075
v  -5.9725 1.2452 -6.6075
v  -3.9821 6.0504 -4.6171
v  -5.9725 6.0504 -4.6171
v  -3.9821 6.0504 -6.6075
v  -5.9725 6.0504 -6.6075
v  -3.8076 6.0833 -4.4426
v  -6.1470 6.0833 -4.4426
v  -3.8076 6.0833 -6.7820
v  -6.1470 6.0833 -6.7820
# 24 vertices

vn -0.5774 -0.5774 0.5774
vn -0.5774 -0.5774 -0.5774
vn 0.5774 -0.5774 -0.5774
vn 0.5774 -0.5774 0.5774
vn -0.5774 0.5774 0.5774
vn 0.5774 0.5774 0.5774
vn 0.5774 0.5774 -0.5774
vn -0.5774 0.5774 -0.5774
vn 0.3015 0.9045 0.3015
vn -0.3015 0.9045 0.3015
vn 0.3015 0.9045 -0.3015
vn -0.3015 0.9045 -0.3015
vn 0.3703 -0.8520 0.3703
vn -0.3703 -0.8520 0.3703
vn 0.3703 -0.8520 -0.3703
vn -0.3703 -0.8520 -0.3703
vn 0.5949 -0.5405 0.5949
vn -0.5949 -0.5405 0.5949
vn 0.5949 -0.5405 -0.5949
vn -0.5949 -0.5405 -0.5949
# 20 vertex normals

vt 1.0000 0.0000 0.0000
vt 1.0000 1.0000 0.0000
vt 0.0000 1.0000 0.0000
vt 0.0000 0.0000 0.0000
# 4 texture coords

o Box004
g Box004
usemtl wire_196088225
s 2
f 93/94/84 94/95/85 95/96/86 96/97/87 
s 4
f 97/97/88 98/94/89 99/95/90 100/96/91 
s 8
f 93/97/84 96/94/87 101/95/89 102/96/88 
s 16
f 96/97/87 95/94/86 103/95/90 101/96/89 
s 32
f 95/97/86 94/94/85 104/95/91 103/96/90 
s 64
f 94/97/85 93/94/84 102/95/88 104/96/91 
s off
f 102/97/88 101/94/89 105/94/92 106/97/93 
f 101/94/89 103/95/90 107/95/94 105/94/92 
f 103/95/90 104/96/91 108/96/95 107/95/94 
f 104/96/91 102/97/88 106/97/93 108/96/95 
f 106/97/93 105/94/92 109/94/96 110/97/97 
f 105/94/92 107/95/94 111/95/98 109/94/96 
f 107/95/94 108/96/95 112/96/99 111/95/98 
f 108/96/95 106/97/93 110/97/97 112/96/99 
f 110/97/97 109/94/96 113/94/100 114/97/101 
f 109/94/96 111/95/98 115/95/102 113/94/100 
f 111/95/98 112/96/99 116/96/103 115/95/102 
f 112/96/99 110/97/97 114/97/101 116/96/103 
f 113/94/100 98/94/89 97/97/88 114/97/101 
f 115/95/102 99/95/90 98/94/89 113/94/100 
f 116/96/103 100/96/91 99/95/90 115/95/102 
f 114/97/101 97/97/88 100/96/91 116/96/103 
# 22 polygons

#
# object Box005
#

v  4.7755 0.0000 -4.3453
v  4.7755 0.0000 -6.8794
v  7.3096 0.0000 -6.8794
v  7.3096 0.0000 -4.3453
v  4.8729 7.3959 -4.4426
v  7.2123 7.3959 -4.4426
v  7.2123 7.3959 -6.7820
v  4.8729 7.3959 -6.7820
v  7.3096 1.2452 -4.3453
v  4.7755 1.2452 -4.3453
v  7.3096 1.2452 -6.8794
v  4.7755 1.2452 -6.8794
v  7.0378 1.2452 -4.6171
v  5.0474 1.2452 -4.6171
v  7.0378 1.2452 -6.6075
v  5.0474 1.2452 -6.6075
v  7.0378 6.0504 -4.6171
v  5.0474 6.0504 -4.6171
v  7.0378 6.0504 -6.6075
v  5.0474 6.0504 -6.6075
v  7.2123 6.0833 -4.4426
v  4.8729 6.0833 -4.4426
v  7.2123 6.0833 -6.7820
v  4.8729 6.0833 -6.7820
# 24 vertices

vn -0.5774 -0.5774 0.5774
vn -0.5774 -0.5774 -0.5774
vn 0.5774 -0.5774 -0.5774
vn 0.5774 -0.5774 0.5774
vn -0.5774 0.5774 0.5774
vn 0.5774 0.5774 0.5774
vn 0.5774 0.5774 -0.5774
vn -0.5774 0.5774 -0.5774
vn 0.3015 0.9045 0.3015
vn -0.3015 0.9045 0.3015
vn 0.3015 0.9045 -0.3015
vn -0.3015 0.9045 -0.3015
vn 0.3703 -0.8520 0.3703
vn -0.3703 -0.8520 0.3703
vn 0.3703 -0.8520 -0.3703
vn -0.3703 -0.8520 -0.3703
vn 0.5949 -0.5405 0.5949
vn -0.5949 -0.5405 0.5949
vn 0.5949 -0.5405 -0.5949
vn -0.5949 -0.5405 -0.5949
# 20 vertex normals

vt 1.0000 0.0000 0.0000
vt 1.0000 1.0000 0.0000
vt 0.0000 1.0000 0.0000
vt 0.0000 0.0000 0.0000
# 4 texture coords

o Box005
g Box005
usemtl wire_196088225
s 2
f 117/98/104 118/99/105 119/100/106 120/101/107 
s 4
f 121/101/108 122/98/109 123/99/110 124/100/111 
s 8
f 117/101/104 120/98/107 125/99/109 126/100/108 
s 16
f 120/101/107 119/98/106 127/99/110 125/100/109 
s 32
f 119/101/106 118/98/105 128/99/111 127/100/110 
s 64
f 118/101/105 117/98/104 126/99/108 128/100/111 
s off
f 126/101/108 125/98/109 129/98/112 130/101/113 
f 125/98/109 127/99/110 131/99/114 129/98/112 
f 127/99/110 128/100/111 132/100/115 131/99/114 
f 128/100/111 126/101/108 130/101/113 132/100/115 
f 130/101/113 129/98/112 133/98/116 134/101/117 
f 129/98/112 131/99/114 135/99/118 133/98/116 
f 131/99/114 132/100/115 136/100/119 135/99/118 
f 132/100/115 130/101/113 134/101/117 136/100/119 
f 134/101/117 133/98/116 137/98/120 138/101/121 
f 133/98/116 135/99/118 139/99/122 137/98/120 
f 135/99/118 136/100/119 140/100/123 139/99/122 
f 136/100/119 134/101/117 138/101/121 140/100/123 
f 137/98/120 122/98/109 121/101/108 138/101/121 
f 139/99/122 123/99/110 122/98/109 137/98/120 
f 140/100/123 124/100/111 123/99/110 139/99/122 
f 138/101/121 121/101/108 124/100/111 140/100/123 
# 22 polygons

