# 3ds Max Wavefront OBJ Exporter v0.99 - (c)2007 guruware
# File Created: 05.01.2023 08:56:02

mtllib EscaleraRocosa.mtl

#
# object Cylinder001
#

v  -1.8809 -0.1321 0.4403
v  -1.6632 -0.3434 1.8476
v  -1.8801 -0.1662 3.0413
v  -2.3863 -0.1090 4.0590
v  -3.5965 -0.1359 4.7345
v  -5.0311 -0.1235 4.7694
v  -6.2447 -0.0930 4.2591
v  -7.0920 -0.1219 3.2574
v  -7.4440 -0.0981 2.0230
v  -7.0917 -0.2208 0.7870
v  -6.4932 -0.0524 -0.4137
v  -5.3336 -0.1356 -0.9710
v  -4.0104 -0.1219 -1.0354
v  -2.8605 -0.1832 -0.4627
v  -4.1600 0.8570 -0.3293
v  -3.1957 0.8537 -0.0329
v  -5.0794 0.8178 -0.2505
v  -6.0266 0.9329 0.1377
v  -6.6322 0.8897 0.9283
v  -6.8847 0.9847 1.9143
v  -6.5111 0.9052 2.9405
v  -5.8237 0.8925 3.6725
v  -4.9088 0.8416 4.0303
v  -4.0006 0.7803 4.0344
v  -3.1364 0.6734 3.5544
v  -2.5166 0.8802 2.6214
v  -2.1519 0.7283 1.6069
v  -2.4666 0.9043 0.7306
v  -3.4141 1.7507 1.2590
v  -3.7754 1.8171 0.8716
v  -4.2982 1.7771 0.6675
v  -4.8435 1.7631 0.6977
v  -5.2997 1.7455 0.9864
v  -5.6452 1.7659 1.4010
v  -5.7322 1.7737 1.9171
v  -5.5713 1.7630 2.4279
v  -5.1513 1.7313 2.7944
v  -4.7064 1.7723 3.0872
v  -4.1916 1.7631 3.0083
v  -3.6673 1.8417 2.7659
v  -3.2966 1.8332 2.3083
v  -3.3499 1.7645 1.7624
v  -4.2127 0.9760 0.0565
v  -3.3758 1.1149 0.1556
v  -5.0470 1.0576 -0.0233
v  -5.7786 1.0561 0.3912
v  -6.3049 1.0592 1.0631
v  -6.4876 1.0771 1.9443
v  -6.2291 1.0575 2.7866
v  -5.6584 1.0356 3.3582
v  -4.9358 1.1022 3.8338
v  -3.9882 1.0576 3.7293
v  -3.2410 1.0485 3.3553
v  -2.6789 1.0989 2.5736
v  -2.7172 0.9874 1.7845
v  -2.8834 0.9786 0.9104
# 56 vertices

vn 0.8452 -0.2756 -0.4579
vn 0.6141 -0.7886 0.0300
vn 0.9026 -0.2712 0.3344
vn 0.7138 -0.2407 0.6577
vn 0.2631 -0.4021 0.8770
vn -0.1727 -0.4155 0.8931
vn -0.5522 -0.3579 0.7530
vn -0.7731 -0.4808 0.4137
vn -0.9317 -0.3624 0.0225
vn -0.4944 -0.8456 -0.2016
vn -0.6728 -0.2416 -0.6993
vn -0.2314 -0.4847 -0.8435
vn 0.1882 -0.3436 -0.9201
vn 0.4472 -0.6149 -0.6496
vn 0.0455 0.7985 -0.6002
vn 0.4211 0.5740 -0.7023
vn -0.1528 0.6537 -0.7412
vn -0.3579 0.7846 -0.5063
vn -0.6666 0.6607 -0.3452
vn -0.6473 0.7622 0.0123
vn -0.5649 0.7303 0.3840
vn -0.3327 0.7725 0.5409
vn -0.1070 0.6039 0.7898
vn 0.2143 0.6813 0.6999
vn 0.4892 0.6510 0.5805
vn 0.7164 0.5965 0.3618
vn 0.7638 0.6453 -0.0122
vn 0.5134 0.8198 -0.2537
vn 0.5506 0.8089 -0.2062
vn 0.1448 0.9769 -0.1573
vn 0.0455 0.8473 -0.5292
vn -0.1522 0.9104 -0.3846
vn -0.3172 0.8760 -0.3633
vn -0.3595 0.9140 -0.1878
vn -0.3772 0.9256 0.0303
vn -0.3094 0.9176 0.2496
vn -0.4231 0.7241 0.5447
vn -0.0944 0.9315 0.3513
vn 0.1272 0.8006 0.5856
vn 0.1519 0.9482 0.2790
vn 0.4280 0.9021 0.0548
vn 0.8728 0.4693 -0.1340
vn 0.0328 0.8302 -0.5565
vn 0.3355 0.7229 -0.6040
vn -0.1228 0.7067 -0.6968
vn -0.3178 0.8713 -0.3741
vn -0.4955 0.8337 -0.2440
vn -0.4364 0.8994 0.0256
vn -0.4583 0.8362 0.3012
vn -0.3496 0.8494 0.3953
vn -0.2158 0.6577 0.7218
vn 0.2259 0.7206 0.6555
vn 0.5227 0.5841 0.6209
vn 0.7428 0.6395 0.1983
vn 0.5822 0.8021 -0.1326
vn 0.4532 0.8838 -0.1161
# 56 vertex normals

vt 0.1258 0.9946 0.0000
vt 0.0548 0.9292 0.0000
vt 0.0159 0.8567 0.0000
vt 0.0010 0.7819 0.0000
vt 0.0361 0.6958 0.0000
vt 0.1099 0.6340 0.0000
vt 0.1948 0.6099 0.0000
vt 0.2811 0.6270 0.0000
vt 0.3516 0.6764 0.0000
vt 0.3848 0.7564 0.0000
vt 0.4047 0.8448 0.0000
vt 0.3660 0.9221 0.0000
vt 0.2994 0.9810 0.0000
vt 0.2151 0.9990 0.0000
vt 0.6470 0.3812 0.0000
vt 0.6303 0.4658 0.0000
vt 0.5525 0.4413 0.0000
vt 0.5687 0.3756 0.0000
vt 0.5918 0.5459 0.0000
vt 0.5259 0.4972 0.0000
vt 0.5328 0.6090 0.0000
vt 0.4786 0.5475 0.0000
vt 0.0010 0.2103 0.0000
vt 0.0512 0.1348 0.0000
vt 0.1097 0.1911 0.0000
vt 0.0739 0.2476 0.0000
vt 0.1170 0.0785 0.0000
vt 0.1621 0.1470 0.0000
vt 0.1898 0.0326 0.0000
vt 0.2238 0.1071 0.0000
vt 0.2738 0.0065 0.0000
vt 0.2881 0.0872 0.0000
vt 0.3620 0.0010 0.0000
vt 0.3539 0.0825 0.0000
vt 0.4561 0.0208 0.0000
vt 0.4143 0.0912 0.0000
vt 0.5360 0.0684 0.0000
vt 0.4745 0.1199 0.0000
vt 0.5828 0.1287 0.0000
vt 0.5159 0.1841 0.0000
vt 0.6284 0.1971 0.0000
vt 0.5611 0.2414 0.0000
vt 0.6470 0.2918 0.0000
vt 0.5659 0.3048 0.0000
vt 0.6840 0.0146 0.0000
vt 0.7172 0.0010 0.0000
vt 0.7548 0.0031 0.0000
vt 0.7872 0.0202 0.0000
vt 0.8072 0.0504 0.0000
vt 0.8167 0.0854 0.0000
vt 0.8077 0.1193 0.0000
vt 0.7837 0.1460 0.0000
vt 0.7481 0.1578 0.0000
vt 0.7126 0.1625 0.0000
vt 0.6829 0.1440 0.0000
vt 0.6579 0.1140 0.0000
vt 0.6479 0.0758 0.0000
vt 0.6665 0.0438 0.0000
vt 0.1242 0.2506 0.0000
vt 0.1977 0.2534 0.0000
vt 0.1926 0.2796 0.0000
vt 0.1325 0.2734 0.0000
vt 0.2568 0.2830 0.0000
vt 0.2464 0.3024 0.0000
vt 0.3056 0.3328 0.0000
vt 0.2837 0.3446 0.0000
vt 0.3194 0.3613 0.0000
vt 0.3293 0.4286 0.0000
vt 0.3037 0.4257 0.0000
vt 0.2956 0.3676 0.0000
vt 0.3096 0.4974 0.0000
vt 0.2850 0.4867 0.0000
vt 0.2541 0.5517 0.0000
vt 0.2411 0.5323 0.0000
vt 0.1870 0.5772 0.0000
vt 0.1871 0.5519 0.0000
vt 0.1158 0.5720 0.0000
vt 0.1252 0.5528 0.0000
vt 0.0545 0.5460 0.0000
vt 0.0667 0.5216 0.0000
vt 0.0062 0.4907 0.0000
vt 0.0305 0.4751 0.0000
vt 0.0010 0.4060 0.0000
vt 0.0190 0.4070 0.0000
vt 0.0037 0.3275 0.0000
vt 0.0372 0.3534 0.0000
vt 0.0524 0.2791 0.0000
vt 0.0732 0.3013 0.0000
vt 0.1767 0.3409 0.0000
vt 0.1413 0.3401 0.0000
vt 0.2087 0.3562 0.0000
vt 0.2291 0.3858 0.0000
vt 0.2379 0.4200 0.0000
vt 0.2292 0.4521 0.0000
vt 0.2067 0.4769 0.0000
vt 0.1725 0.4875 0.0000
vt 0.1390 0.4908 0.0000
vt 0.1115 0.4732 0.0000
vt 0.0898 0.4452 0.0000
vt 0.0800 0.4111 0.0000
vt 0.0954 0.3798 0.0000
vt 0.1110 0.3527 0.0000
# 102 texture coords

o Cylinder001
g Cylinder001
usemtl wire_154185229
s 1
f 1/1/1 2/2/2 3/3/3 4/4/4 5/5/5 6/6/6 7/7/7 8/8/8 9/9/9 10/10/10 11/11/11 12/12/12 13/13/13 14/14/14 
s 8
f 14/15/14 13/16/13 15/17/15 16/18/16 
f 13/16/13 12/19/12 17/20/17 15/17/15 
f 12/19/12 11/21/11 18/22/18 17/20/17 
f 11/23/11 10/24/10 19/25/19 18/26/18 
f 10/24/10 9/27/9 20/28/20 19/25/19 
f 9/27/9 8/29/8 21/30/21 20/28/20 
f 8/29/8 7/31/7 22/32/22 21/30/21 
f 7/31/7 6/33/6 23/34/23 22/32/22 
f 6/33/6 5/35/5 24/36/24 23/34/23 
f 5/35/5 4/37/4 25/38/25 24/36/24 
f 4/37/4 3/39/3 26/40/26 25/38/25 
f 3/39/3 2/41/2 27/42/27 26/40/26 
f 2/41/2 1/43/1 28/44/28 27/42/27 
f 1/43/1 14/15/14 16/18/16 28/44/28 
s 1
f 29/45/29 30/46/30 31/47/31 32/48/32 33/49/33 34/50/34 35/51/35 36/52/36 37/53/37 38/54/38 39/55/39 40/56/40 41/57/41 42/58/42 
s off
f 16/59/16 15/60/15 43/61/43 44/62/44 
f 15/60/15 17/63/17 45/64/45 43/61/43 
f 17/63/17 18/65/18 46/66/46 45/64/45 
f 18/67/18 19/68/19 47/69/47 46/70/46 
f 19/68/19 20/71/20 48/72/48 47/69/47 
f 20/71/20 21/73/21 49/74/49 48/72/48 
f 21/73/21 22/75/22 50/76/50 49/74/49 
f 22/75/22 23/77/23 51/78/51 50/76/50 
f 23/77/23 24/79/24 52/80/52 51/78/51 
f 24/79/24 25/81/25 53/82/53 52/80/52 
f 25/81/25 26/83/26 54/84/54 53/82/53 
f 26/83/26 27/85/27 55/86/55 54/84/54 
f 27/85/27 28/87/28 56/88/56 55/86/55 
f 28/87/28 16/59/16 44/62/44 56/88/56 
f 43/61/43 31/89/31 30/90/30 44/62/44 
f 45/64/45 32/91/32 31/89/31 43/61/43 
f 46/66/46 33/92/33 32/91/32 45/64/45 
f 47/69/47 34/93/34 33/92/33 46/70/46 
f 48/72/48 35/94/35 34/93/34 47/69/47 
f 49/74/49 36/95/36 35/94/35 48/72/48 
f 50/76/50 37/96/37 36/95/36 49/74/49 
f 51/78/51 38/97/38 37/96/37 50/76/50 
f 52/80/52 39/98/39 38/97/38 51/78/51 
f 53/82/53 40/99/40 39/98/39 52/80/52 
f 54/84/54 41/100/41 40/99/40 53/82/53 
f 55/86/55 42/101/42 41/100/41 54/84/54 
f 56/88/56 29/102/29 42/101/42 55/86/55 
f 44/62/44 30/90/30 29/102/29 56/88/56 
# 44 polygons

#
# object Box001
#

v  -6.9890 0.0000 8.2179
v  -8.1928 0.0000 8.0564
v  -8.2001 0.0000 6.6555
v  -7.0633 0.0000 7.3186
v  -6.9890 0.4211 8.2179
v  -7.0633 0.4211 7.3186
v  -8.2001 0.4211 6.6555
v  -8.1928 0.4211 8.0564
v  -6.7392 0.0000 5.8512
v  -7.8760 0.0000 5.1880
v  -7.8760 0.4211 5.1880
v  -6.7392 0.4211 5.8512
v  -9.1402 0.0000 6.1071
v  -9.1882 0.0000 7.9228
v  -9.1882 0.4211 7.9228
v  -9.1402 0.4211 6.1071
v  -8.8161 0.4211 4.6396
v  -8.8161 0.0000 4.6396
v  -9.1402 0.8728 6.1071
v  -8.2001 0.8728 6.6555
v  -7.8760 0.8728 5.1880
v  -8.8161 0.8728 4.6396
v  -6.7392 0.8728 5.8512
v  -7.0633 0.8728 7.3186
v  -6.4370 0.4211 5.1425
v  -7.4245 0.4211 4.0123
v  -7.4245 0.8728 4.0123
v  -6.4370 0.8728 5.1425
v  -8.2411 0.8728 3.0776
v  -8.2411 0.4211 3.0776
v  -8.8161 1.1739 4.6396
v  -7.8760 1.1739 5.1880
v  -7.4245 1.1739 4.0123
v  -8.2411 1.1739 3.0776
v  -6.4370 1.1739 5.1425
v  -6.7392 1.1739 5.8512
v  -6.2257 0.8728 4.5827
v  -7.0414 0.8728 3.1350
v  -7.0414 1.1739 3.1350
v  -6.2257 1.1739 4.5827
v  -7.7160 1.1739 1.9378
v  -7.7160 0.8728 1.9378
v  -8.2411 1.4750 3.0776
v  -7.4245 1.4750 4.0123
v  -7.0414 1.4750 3.1350
v  -7.7160 1.4750 1.9378
v  -6.2257 1.4750 4.5827
v  -6.4370 1.4750 5.1425
v  -5.8913 1.1739 4.0648
v  -6.4277 1.1739 2.3059
v  -6.4277 1.4750 2.3059
v  -5.8913 1.4750 4.0648
v  -6.8712 1.4750 0.8515
v  -6.8712 1.1739 0.8515
v  -7.7160 1.7761 1.9378
v  -7.0414 1.7761 3.1350
v  -6.4277 1.7761 2.3059
v  -6.8712 1.7761 0.8515
v  -5.8913 1.7761 4.0648
v  -6.2257 1.7761 4.5827
v  -4.6729 1.4750 3.1533
v  -5.8395 1.4750 1.8870
v  -5.8395 1.7761 1.8870
v  -4.6729 1.7761 3.1533
v  -5.3332 1.7761 0.8399
v  -5.3332 1.4750 0.8399
# 66 vertices

vn 0.6099 -0.5669 0.6012
vn -0.0359 -0.7071 0.7062
vn 0.0000 -1.0000 -0.0000
vn 0.6380 -0.7645 0.1007
vn 0.6101 0.5668 0.6010
vn 0.7968 0.4058 0.5043
vn -0.2163 0.7071 0.6577
vn -0.0359 0.7071 0.7062
vn 0.7217 -0.5774 -0.3134
vn 0.2163 -0.7071 -0.6577
vn 0.9250 -0.3565 0.1403
vn -0.7228 -0.6748 -0.1795
vn -0.5896 -0.5795 0.5117
vn -0.5896 0.5795 0.5117
vn -0.9579 0.2429 0.0186
vn -0.7359 -0.2632 -0.6804
vn -0.3684 -0.5774 -0.7606
vn -0.7217 0.5774 0.3134
vn -0.9367 0.3139 -0.1811
vn 0.6679 0.2899 0.7383
vn 0.3684 0.5774 0.7606
vn 0.7927 -0.5778 -0.1031
vn 0.3859 -0.7071 -0.5612
vn 0.9237 -0.2884 0.3019
vn -0.6117 -0.3000 -0.7816
vn -0.1935 -0.5735 -0.8149
vn -0.7602 0.5678 0.2400
vn -0.3859 0.7071 0.5612
vn -0.9194 0.2883 -0.3187
vn 0.6136 0.3067 0.7772
vn 0.2676 0.5924 0.7844
vn 0.7923 -0.5935 -0.0370
vn 0.5025 -0.7071 -0.4543
vn 0.9073 -0.2852 0.3637
vn -0.4872 -0.2990 -0.8619
vn -0.0657 -0.5682 -0.8291
vn -0.7970 0.5758 0.0881
vn -0.5025 0.7071 0.4543
vn -0.8558 0.2691 -0.5013
vn 0.4801 0.3613 0.8400
vn 0.1890 0.5741 0.8153
vn 0.7895 -0.5949 0.1804
vn 0.6187 -0.7071 -0.2840
vn 0.7901 -0.2946 0.5958
vn -0.1413 -0.2280 -0.9789
vn 0.1538 -0.5671 -0.7997
vn -0.8119 0.5737 -0.1070
vn 0.0000 1.0000 -0.0000
vn -0.2744 0.6405 -0.7421
vn 0.3881 0.7460 0.5733
vn -0.0022 0.5763 0.8205
vn 0.8254 -0.5538 0.1077
vn 0.3967 -0.9134 -0.0442
vn 0.3967 0.9134 -0.0442
vn 0.8254 0.5538 0.1077
vn 0.7329 0.5500 -0.3313
vn 0.7329 -0.5500 -0.3313
# 57 vertex normals

vt 0.8772 0.0000 0.0000
vt 0.8658 0.1325 0.0000
vt 0.7709 0.1330 0.0000
vt 0.8162 0.0080 0.0000
vt 0.0000 0.0128 0.0000
vt 0.0601 0.0000 0.0000
vt 0.1445 0.1028 0.0000
vt 0.0549 0.1339 0.0000
vt 0.3855 0.0034 0.0000
vt 0.4468 0.0000 0.0000
vt 0.4495 0.0492 0.0000
vt 0.3882 0.0525 0.0000
vt 0.4692 0.2941 0.0000
vt 0.5767 0.3723 0.0000
vt 0.5477 0.4121 0.0000
vt 0.4402 0.3339 0.0000
vt 0.2211 0.1910 0.0000
vt 0.3417 0.1663 0.0000
vt 0.3516 0.2145 0.0000
vt 0.2310 0.2392 0.0000
vt 0.1112 0.1163 0.0000
vt 0.2211 0.1160 0.0000
vt 0.2213 0.1653 0.0000
vt 0.1113 0.1655 0.0000
vt 0.5313 0.2087 0.0000
vt 0.6388 0.2870 0.0000
vt 0.7266 0.8318 0.0000
vt 0.7209 0.8807 0.0000
vt 0.6160 0.8684 0.0000
vt 0.6217 0.8195 0.0000
vt 0.6492 0.7702 0.0000
vt 0.5921 0.8641 0.0000
vt 0.5019 0.8092 0.0000
vt 0.5591 0.7153 0.0000
vt 0.7189 0.1313 0.0000
vt 0.7675 0.1235 0.0000
vt 0.7842 0.2278 0.0000
vt 0.7356 0.2356 0.0000
vt 0.8301 0.8936 0.0000
vt 0.8239 0.9460 0.0000
vt 0.7147 0.9332 0.0000
vt 0.6835 0.2439 0.0000
vt 0.6668 0.1396 0.0000
vt 0.3948 0.3706 0.0000
vt 0.4776 0.4746 0.0000
vt 0.4363 0.5075 0.0000
vt 0.3535 0.4035 0.0000
vt 0.6098 0.9208 0.0000
vt 0.4874 0.9064 0.0000
vt 0.4935 0.8540 0.0000
vt 0.5290 0.6970 0.0000
vt 0.4718 0.7909 0.0000
vt 0.3831 0.7601 0.0000
vt 0.4133 0.6544 0.0000
vt 0.7449 0.2932 0.0000
vt 0.6927 0.3016 0.0000
vt 0.6580 0.3072 0.0000
vt 0.6487 0.2495 0.0000
vt 0.3205 0.4334 0.0000
vt 0.3792 0.5527 0.0000
vt 0.3476 0.5682 0.0000
vt 0.2889 0.4489 0.0000
vt 0.6057 0.9558 0.0000
vt 0.4832 0.9414 0.0000
vt 0.3875 0.9301 0.0000
vt 0.3916 0.8951 0.0000
vt 0.3794 0.6447 0.0000
vt 0.3492 0.7505 0.0000
vt 0.2791 0.7307 0.0000
vt 0.2860 0.6210 0.0000
vt 0.6998 0.3455 0.0000
vt 0.6650 0.3511 0.0000
vt 0.6303 0.3566 0.0000
vt 0.6232 0.3127 0.0000
vt 0.2437 0.4723 0.0000
vt 0.2670 0.6032 0.0000
vt 0.2323 0.6093 0.0000
vt 0.2091 0.4784 0.0000
vt 0.4791 0.9763 0.0000
vt 0.3833 0.9650 0.0000
vt 0.2656 0.9512 0.0000
vt 0.2697 0.9162 0.0000
vt 0.2508 0.6188 0.0000
vt 0.2440 0.7285 0.0000
vt 0.1561 0.7273 0.0000
vt 0.1322 0.6199 0.0000
vt 0.6731 0.4013 0.0000
vt 0.6383 0.4069 0.0000
vt 0.6035 0.4124 0.0000
vt 0.5955 0.3622 0.0000
vt 0.6617 0.5527 0.0000
vt 0.6861 0.7051 0.0000
vt 0.6513 0.7107 0.0000
vt 0.6269 0.5582 0.0000
vt 0.3792 1.0000 0.0000
vt 0.2614 0.9861 0.0000
vt 0.1622 0.6184 0.0000
vt 0.0630 0.5000 0.0000
vt 0.0933 0.9663 0.0000
vt 0.0974 0.9314 0.0000
vt 0.0879 0.7459 0.0000
vt 0.0000 0.7257 0.0000
vt 0.2781 0.0000 0.0000
vt 0.2688 0.1096 0.0000
vt 0.1458 0.1039 0.0000
vt 0.1832 0.0005 0.0000
vt 0.3757 0.0105 0.0000
vt 0.4021 0.1172 0.0000
vt 0.2792 0.1099 0.0000
vt 0.2814 0.0000 0.0000
vt 0.4879 0.0854 0.0000
vt 0.5768 0.1501 0.0000
vt 0.5478 0.1899 0.0000
vt 0.4589 0.1252 0.0000
vt 0.3541 0.1157 0.0000
vt 0.3542 0.1650 0.0000
vt 0.5500 0.0000 0.0000
vt 0.6389 0.0647 0.0000
vt 0.8081 0.1399 0.0000
vt 0.9371 0.1722 0.0000
vt 0.9115 0.2747 0.0000
vt 0.7825 0.2424 0.0000
vt 0.6979 0.0000 0.0000
vt 0.6458 0.0084 0.0000
vt 0.3888 0.1877 0.0000
vt 0.4574 0.2737 0.0000
vt 0.4161 0.3066 0.0000
vt 0.3475 0.2206 0.0000
vt 0.7739 0.2765 0.0000
vt 0.9029 0.3088 0.0000
vt 0.9039 0.3672 0.0000
vt 0.7709 0.3704 0.0000
vt 0.2904 0.2658 0.0000
vt 0.3389 0.3644 0.0000
vt 0.3073 0.3800 0.0000
vt 0.2588 0.2813 0.0000
vt 0.7718 0.4056 0.0000
vt 0.9047 0.4024 0.0000
vt 0.9029 0.4469 0.0000
vt 0.7738 0.4784 0.0000
vt 0.1782 0.3162 0.0000
vt 0.1974 0.4245 0.0000
vt 0.1627 0.4306 0.0000
vt 0.1435 0.3224 0.0000
vt 0.7821 0.5126 0.0000
vt 0.9113 0.4810 0.0000
vt 0.9224 0.5307 0.0000
vt 0.8070 0.5968 0.0000
vt 0.0078 0.9208 0.0000
vt 0.0037 0.9558 0.0000
vt 0.0000 0.3838 0.0000
vt 0.0734 0.3314 0.0000
vt 0.9995 0.6566 0.0000
vt 0.8451 0.6564 0.0000
# 154 texture coords

o Box001
g Box001
usemtl wire_088177027
s 2
f 57/103/57 58/104/58 59/105/59 60/106/60 
s 4
f 61/107/61 62/108/62 63/109/63 64/110/64 
s 8
f 57/111/57 60/112/60 62/113/62 61/114/61 
s 16
f 65/115/65 66/116/66 67/117/66 68/118/67 
s 32
f 69/119/68 70/120/69 71/121/70 72/122/71 
s 64
f 70/123/69 58/124/58 64/125/64 71/126/70 
s off
f 60/127/60 59/128/59 66/116/66 65/115/65 
f 69/129/68 72/130/71 73/131/72 74/132/73 
f 75/133/74 76/134/63 77/135/63 78/136/75 
f 62/137/62 60/138/60 65/139/65 68/140/67 
f 72/130/71 63/141/63 76/142/63 75/143/74 
f 62/137/62 68/140/67 79/144/76 80/145/77 
f 81/146/78 82/147/79 83/148/79 84/149/80 
f 73/131/72 72/130/71 75/143/74 78/150/75 
f 68/118/67 67/117/66 82/147/79 81/146/78 
f 73/131/72 78/150/75 85/151/81 86/152/82 
f 87/153/83 88/154/63 89/155/84 90/156/85 
f 79/144/76 68/140/67 81/157/78 84/158/80 
f 78/136/75 77/135/63 88/154/63 87/153/83 
f 79/144/76 84/158/80 91/159/86 92/160/87 
f 93/161/88 94/162/89 95/163/89 96/164/90 
f 85/151/81 78/150/75 87/165/83 90/166/85 
f 84/149/80 83/148/79 94/162/89 93/161/88 
f 85/151/81 90/166/85 97/167/91 98/168/92 
f 99/169/93 100/170/84 101/171/94 102/172/95 
f 91/159/86 84/158/80 93/173/88 96/174/90 
f 90/156/85 89/155/84 100/170/84 99/169/93 
f 91/159/86 96/174/90 103/175/96 104/176/97 
f 105/177/98 106/178/99 107/179/99 108/180/100 
f 97/167/91 90/166/85 99/181/93 102/182/95 
f 96/164/90 95/163/89 106/178/99 105/177/98 
f 97/167/91 102/182/95 109/183/101 110/184/102 
f 111/185/103 112/186/94 113/187/104 114/188/105 
f 103/175/96 96/174/90 105/189/98 108/190/100 
f 102/172/95 101/171/94 112/186/94 111/185/103 
f 103/175/96 108/190/100 115/191/106 116/192/107 
f 117/193/108 118/194/109 119/195/110 120/196/111 
f 109/183/101 102/182/95 111/197/103 114/198/105 
f 108/180/100 107/179/99 118/199/109 117/200/108 
f 109/183/101 114/198/105 121/201/112 122/202/113 
f 114/188/105 113/187/104 119/203/110 121/204/112 
f 115/191/106 108/190/100 117/193/108 120/196/111 
s 2
f 58/205/58 70/206/69 69/207/68 59/208/59 
s 4
f 63/209/63 72/210/71 71/211/70 64/212/64 
s 16
f 66/213/66 74/214/73 73/215/72 67/216/66 
s 64
f 58/124/58 57/217/57 61/218/61 64/125/64 
s off
f 59/219/59 69/220/68 74/214/73 66/213/66 
f 76/221/63 80/222/77 79/223/76 77/224/63 
f 63/225/63 62/137/62 80/145/77 76/226/63 
f 82/227/79 86/228/82 85/229/81 83/230/79 
f 67/216/66 73/215/72 86/228/82 82/227/79 
f 88/231/63 92/232/87 91/233/86 89/234/84 
f 77/224/63 79/223/76 92/232/87 88/231/63 
f 94/235/89 98/236/92 97/237/91 95/238/89 
f 83/230/79 85/229/81 98/236/92 94/235/89 
f 100/239/84 104/240/97 103/241/96 101/242/94 
f 89/234/84 91/233/86 104/240/97 100/239/84 
f 106/243/99 110/244/102 109/245/101 107/246/99 
f 95/238/89 97/237/91 110/244/102 106/243/99 
f 112/247/94 116/248/107 115/249/106 113/250/104 
f 101/242/94 103/241/96 116/248/107 112/247/94 
f 118/251/109 122/202/113 121/201/112 119/252/110 
f 107/246/99 109/245/101 122/253/113 118/254/109 
f 113/250/104 115/249/106 120/255/111 119/256/110 
# 64 polygons

