# 3ds Max Wavefront OBJ Exporter v0.99 - (c)2007 guruware
# File Created: 26.12.2022 17:57:49

mtllib EscaleraRocosa.mtl

#
# object Cylinder001
#

v  8.9144 -0.0345 -4.5049
v  9.6460 -0.7446 0.2247
v  8.9170 -0.1489 4.2362
v  7.2158 0.0431 7.6565
v  3.1485 -0.0472 9.9264
v  -1.6727 -0.0057 10.0437
v  -5.7513 0.0969 8.3287
v  -8.5986 0.0000 4.9625
v  -9.7816 0.0797 0.8138
v  -8.5975 -0.3327 -3.3400
v  -6.5862 0.2333 -7.3750
v  -2.6892 -0.0461 -9.2479
v  1.7576 0.0000 -9.4644
v  5.6222 -0.2063 -7.5398
v  1.2548 3.2895 -7.0913
v  4.4956 3.2787 -6.0953
v  -1.8348 3.1579 -6.8265
v  -5.0180 3.5449 -5.5221
v  -7.0533 3.3995 -2.8648
v  -7.9019 3.7187 0.4486
v  -6.6465 3.4517 3.8975
v  -4.3362 3.4090 6.3574
v  -1.2615 3.2379 7.5599
v  1.7906 3.0318 7.5739
v  4.6948 2.6725 5.9607
v  6.7780 3.3677 2.8252
v  8.0037 2.8571 -0.5845
v  6.9460 3.4486 -3.5293
v  3.7618 6.2930 -1.7534
v  2.5474 6.5162 -3.0556
v  0.7906 6.3818 -3.7414
v  -1.0422 6.3348 -3.6400
v  -2.5751 6.2757 -2.6697
v  -3.7364 6.3442 -1.2762
v  -4.0288 6.3705 0.4580
v  -3.4880 6.3344 2.1749
v  -2.0767 6.2278 3.4063
v  -0.5813 6.3658 4.3904
v  1.1487 6.3348 4.1254
v  2.9108 6.5988 3.3107
v  4.1565 6.5703 1.7726
v  3.9774 6.3395 -0.0618
v  1.0777 3.6897 -5.7947
v  3.8905 4.1565 -5.4617
v  -1.7258 3.9637 -6.0630
v  -4.1848 3.9589 -4.6701
v  -5.9535 3.9692 -2.4118
v  -6.5675 4.0292 0.5496
v  -5.6987 3.9636 3.3801
v  -3.7807 3.8898 5.3011
v  -1.3522 4.1138 6.8994
v  1.8324 3.9637 6.5484
v  4.3434 3.9333 5.2914
v  6.2326 4.1025 2.6642
v  6.1038 3.7279 0.0126
v  5.5453 3.6984 -2.9250
# 56 vertices

vn 0.8452 -0.2756 -0.4579
vn 0.6141 -0.7886 0.0300
vn 0.9026 -0.2712 0.3344
vn 0.7138 -0.2407 0.6577
vn 0.2631 -0.4021 0.8770
vn -0.1727 -0.4155 0.8931
vn -0.5522 -0.3579 0.7530
vn -0.7731 -0.4808 0.4137
vn -0.9317 -0.3624 0.0225
vn -0.4944 -0.8456 -0.2016
vn -0.6728 -0.2416 -0.6993
vn -0.2314 -0.4847 -0.8435
vn 0.1882 -0.3436 -0.9201
vn 0.4472 -0.6149 -0.6496
vn 0.0455 0.7985 -0.6002
vn 0.4211 0.5740 -0.7023
vn -0.1528 0.6537 -0.7412
vn -0.3579 0.7846 -0.5063
vn -0.6666 0.6607 -0.3452
vn -0.6473 0.7622 0.0123
vn -0.5649 0.7303 0.3840
vn -0.3327 0.7725 0.5409
vn -0.1070 0.6039 0.7898
vn 0.2143 0.6813 0.6999
vn 0.4892 0.6510 0.5805
vn 0.7164 0.5965 0.3618
vn 0.7638 0.6453 -0.0122
vn 0.5134 0.8198 -0.2537
vn 0.5506 0.8089 -0.2062
vn 0.1448 0.9769 -0.1573
vn 0.0455 0.8473 -0.5292
vn -0.1522 0.9104 -0.3846
vn -0.3172 0.8760 -0.3633
vn -0.3595 0.9140 -0.1878
vn -0.3772 0.9256 0.0303
vn -0.3094 0.9176 0.2496
vn -0.4231 0.7241 0.5447
vn -0.0944 0.9315 0.3513
vn 0.1272 0.8006 0.5856
vn 0.1519 0.9482 0.2790
vn 0.4280 0.9021 0.0548
vn 0.8728 0.4693 -0.1340
vn 0.0328 0.8302 -0.5565
vn 0.3355 0.7229 -0.6040
vn -0.1228 0.7067 -0.6968
vn -0.3178 0.8713 -0.3741
vn -0.4955 0.8337 -0.2440
vn -0.4364 0.8994 0.0256
vn -0.4583 0.8362 0.3012
vn -0.3496 0.8494 0.3953
vn -0.2158 0.6577 0.7218
vn 0.2259 0.7206 0.6555
vn 0.5227 0.5841 0.6209
vn 0.7428 0.6395 0.1983
vn 0.5822 0.8021 -0.1326
vn 0.4532 0.8838 -0.1161
# 56 vertex normals

vt 0.3395 0.0000 -0.0000
vt 0.1647 0.0000 -0.4450
vt 0.0562 0.0000 -0.8019
vt 0.0357 0.0000 -1.0000
vt 0.1071 0.0000 -1.0000
vt 0.2564 0.0000 -0.8019
vt 0.4539 0.0000 -0.4450
vt 0.6605 0.0000 0.0000
vt 0.8353 0.0000 0.4450
vt 0.9438 0.0000 0.8019
vt 0.9643 0.0000 1.0000
vt 0.8929 0.0000 1.0000
vt 0.8214 0.0000 1.0000
vt 0.7500 0.0000 1.0000
vt 0.8214 1.0000 1.0000
vt 0.7500 1.0000 1.0000
vt 0.8929 1.0000 1.0000
vt 0.9643 1.0000 1.0000
vt -0.0357 0.0000 1.0000
vt 0.0357 0.0000 1.0000
vt 0.0357 1.0000 1.0000
vt -0.0357 1.0000 1.0000
vt 0.1071 0.0000 1.0000
vt 0.1071 1.0000 1.0000
vt 0.1786 0.0000 1.0000
vt 0.1786 1.0000 1.0000
vt 0.2500 0.0000 1.0000
vt 0.2500 1.0000 1.0000
vt 0.3214 0.0000 1.0000
vt 0.3214 1.0000 1.0000
vt 0.3929 0.0000 1.0000
vt 0.3929 1.0000 1.0000
vt 0.4643 0.0000 1.0000
vt 0.4643 1.0000 1.0000
vt 0.5357 0.0000 1.0000
vt 0.5357 1.0000 1.0000
vt 0.6071 0.0000 1.0000
vt 0.6071 1.0000 1.0000
vt 0.6786 0.0000 1.0000
vt 0.6786 1.0000 1.0000
vt 0.9438 1.0000 0.8019
vt 0.8353 1.0000 0.4450
vt 0.6605 1.0000 0.0000
vt 0.4539 1.0000 -0.4450
vt 0.2564 1.0000 -0.8019
vt 0.1071 1.0000 -1.0000
vt 0.0357 1.0000 -1.0000
vt 0.0562 1.0000 -0.8019
vt 0.1647 1.0000 -0.4450
# 49 texture coords

o Cylinder001
g Cylinder001
usemtl wire_154185229
s 1
f 1/1/1 2/2/2 3/3/3 4/4/4 5/5/5 6/6/6 7/7/7 8/8/8 9/9/9 10/10/10 11/11/11 12/12/12 13/13/13 14/14/14 
s 8
f 14/14/14 13/13/13 15/15/15 16/16/16 
f 13/13/13 12/12/12 17/17/17 15/15/15 
f 12/12/12 11/11/11 18/18/18 17/17/17 
f 11/19/11 10/20/10 19/21/19 18/22/18 
f 10/20/10 9/23/9 20/24/20 19/21/19 
f 9/23/9 8/25/8 21/26/21 20/24/20 
f 8/25/8 7/27/7 22/28/22 21/26/21 
f 7/27/7 6/29/6 23/30/23 22/28/22 
f 6/29/6 5/31/5 24/32/24 23/30/23 
f 5/31/5 4/33/4 25/34/25 24/32/24 
f 4/33/4 3/35/3 26/36/26 25/34/25 
f 3/35/3 2/37/2 27/38/27 26/36/26 
f 2/37/2 1/39/1 28/40/28 27/38/27 
f 1/39/1 14/14/14 16/16/16 28/40/28 
s 1
f 29/40/29 30/16/30 31/15/31 32/17/32 33/18/33 34/41/34 35/42/35 36/43/36 37/44/37 38/45/38 39/46/39 40/47/40 41/48/41 42/49/42 
s off
f 16/16/16 15/15/15 43/15/43 44/16/44 
f 15/15/15 17/17/17 45/17/45 43/15/43 
f 17/17/17 18/18/18 46/18/46 45/17/45 
f 18/18/18 19/41/19 47/41/47 46/18/46 
f 19/41/19 20/42/20 48/42/48 47/41/47 
f 20/42/20 21/43/21 49/43/49 48/42/48 
f 21/43/21 22/44/22 50/44/50 49/43/49 
f 22/44/22 23/45/23 51/45/51 50/44/50 
f 23/45/23 24/46/24 52/46/52 51/45/51 
f 24/46/24 25/47/25 53/47/53 52/46/52 
f 25/47/25 26/48/26 54/48/54 53/47/53 
f 26/48/26 27/49/27 55/49/55 54/48/54 
f 27/49/27 28/40/28 56/40/56 55/49/55 
f 28/40/28 16/16/16 44/16/44 56/40/56 
f 43/15/43 31/15/31 30/16/30 44/16/44 
f 45/17/45 32/17/32 31/15/31 43/15/43 
f 46/18/46 33/18/33 32/17/32 45/17/45 
f 47/41/47 34/41/34 33/18/33 46/18/46 
f 48/42/48 35/42/35 34/41/34 47/41/47 
f 49/43/49 36/43/36 35/42/35 48/42/48 
f 50/44/50 37/44/37 36/43/36 49/43/49 
f 51/45/51 38/45/38 37/44/37 50/44/50 
f 52/46/52 39/46/39 38/45/38 51/45/51 
f 53/47/53 40/47/40 39/46/39 52/46/52 
f 54/48/54 41/48/41 40/47/40 53/47/53 
f 55/49/55 42/49/42 41/48/41 54/48/54 
f 56/40/56 29/40/29 42/49/42 55/49/55 
f 44/16/44 30/16/30 29/40/29 56/40/56 
# 44 polygons

#
# object Box001
#

v  -9.2142 4.5115 3.1332
v  -9.9714 4.5115 0.4155
v  -8.2390 4.5115 0.0732
v  -6.8724 4.5115 2.8329
v  -9.4774 6.3434 3.3609
v  -6.2295 6.3434 2.7873
v  -7.0948 6.3434 -0.1047
v  -9.9714 6.3434 0.4155
v  -4.5666 4.5115 2.5372
v  -5.9210 4.5115 -0.2639
v  -4.1949 6.3434 0.3388
v  -2.9893 6.3434 2.3155
v  -5.5248 4.5115 -3.1755
v  -8.1714 4.5115 -2.8011
v  -7.1561 6.3434 -2.9019
v  -3.3442 6.3434 -2.4871
v  -10.8593 4.5115 -2.4208
v  -10.0624 3.5017 0.2697
v  -9.2142 3.5017 3.1332
v  -12.9499 3.5017 4.2185
v  -13.6405 3.5017 1.3295
v  -10.8593 3.5017 -2.4208
v  -14.7158 3.5017 -0.7309
v  -12.7923 4.5115 4.1931
v  -14.4374 4.5115 -1.3609
v  -14.8056 2.1701 -0.8307
v  -12.9065 2.1701 0.3910
v  -12.0977 2.1701 2.2434
v  -13.9513 2.1701 5.3694
v  -18.5436 2.1701 1.5639
v  -10.4356 6.3434 -2.3518
v  -13.9051 3.5017 5.3455
v  -18.4334 3.5017 1.4041
v  -18.5548 0.8246 1.5487
v  -13.8282 0.8246 4.8972
v  -15.8650 0.8246 7.6666
v  -21.0590 0.8246 5.1025
v  -20.7121 2.1701 4.5938
v  -15.9855 2.1701 7.9423
v  -13.9548 2.1796 5.4958
v  -18.5634 2.1796 1.5625
v  -21.0590 -0.3286 5.1025
v  -15.8650 -0.3286 7.6666
v  -16.9158 -0.3286 9.7296
v  -22.5798 -0.3286 8.5161
v  -15.8650 0.2521 7.6666
v  -21.0590 0.2521 5.1025
v  -17.2321 0.8246 10.1159
v  -17.0450 0.2521 10.1631
v  -22.4262 0.8246 8.5837
v  -22.5798 0.2521 8.5161
v  -15.8731 0.8320 7.6831
v  -21.0672 0.8320 5.1190
v  -22.9571 0.2521 11.1269
v  -22.9571 -0.3286 11.1269
v  -17.2931 -0.3286 12.3403
v  -17.2931 0.2521 12.3403
# 57 vertices

vn 0.1684 -0.2569 0.9517
vn 0.6463 -0.7344 -0.2074
vn 0.0000 -1.0000 -0.0000
vn 0.0812 -0.7167 0.6927
vn -0.5254 0.4822 0.7010
vn 0.1016 0.6958 0.7110
vn 0.0000 1.0000 -0.0000
vn 0.3812 -0.7437 0.5492
vn 0.2526 -0.9672 -0.0269
vn 0.8531 0.4585 -0.2491
vn 0.9329 0.2421 0.2666
vn 0.1925 -0.4853 -0.8529
vn -0.0921 -0.6958 -0.7123
vn 0.0216 0.6431 -0.7655
vn 0.9214 0.2049 -0.3302
vn -0.1266 0.2672 -0.9553
vn 0.6497 -0.7304 -0.2106
vn 0.7187 -0.5746 0.3915
vn 0.2697 -0.0109 0.9629
vn 0.8645 -0.3883 -0.3192
vn 0.3475 -0.5739 -0.7415
vn -0.4077 0.2858 -0.8672
vn -0.3097 0.6250 0.7165
vn -0.6188 0.4446 -0.6476
vn -0.0245 -0.5693 -0.8218
vn 0.6968 -0.2850 -0.6583
vn 0.9526 -0.2512 -0.1717
vn 0.9038 -0.4196 -0.0840
vn -0.2586 -0.3305 -0.9077
vn -0.5579 0.6815 -0.4737
vn 0.0638 0.6185 0.7832
vn -0.7888 0.5962 -0.1494
vn -0.1415 -0.5753 -0.8056
vn 0.8080 -0.4991 -0.3131
vn 0.8605 -0.4903 0.1383
vn -0.4699 -0.3988 -0.7875
vn -0.7872 -0.0150 -0.6165
vn -0.2670 0.8710 0.4124
vn 0.0600 0.4928 0.8681
vn 0.1876 0.4072 0.8939
vn -0.3845 0.7805 0.4929
vn -0.2770 -0.5790 -0.7669
vn 0.7781 -0.5730 -0.2572
vn 0.5657 -0.7843 0.2547
vn -0.7034 -0.6753 -0.2216
vn 0.9445 0.0000 -0.3286
vn -0.3398 -0.0000 -0.9405
vn 0.1570 0.6691 0.7264
vn 0.7400 0.5085 0.4402
vn -0.6153 0.6510 0.4445
vn -0.9108 0.4038 -0.0864
vn -0.3419 0.5558 0.7578
vn -0.1897 0.8872 0.4206
vn -0.6680 0.5793 0.4672
vn -0.6680 -0.5793 0.4672
vn 0.4686 -0.5755 0.6702
vn 0.4803 0.5738 0.6634
# 57 vertex normals

vt 1.0000 0.0000 0.0000
vt 1.0000 0.5156 0.0000
vt 0.4961 0.5156 0.0000
vt 0.4961 0.0000 0.0000
vt 0.0000 0.0000 0.0000
vt 0.5039 0.0000 0.0000
vt 0.5039 0.5156 0.0000
vt 0.0000 0.5156 0.0000
vt 0.5039 1.0000 0.0000
vt 0.0000 1.0000 0.0000
vt 0.5156 0.0000 0.0000
vt 0.5156 1.0000 0.0000
vt 0.4961 1.0000 0.0000
vt 1.0000 1.0000 0.0000
vt 0.4844 0.0000 0.0000
vt 0.7329 0.0000 0.0000
vt 0.0000 0.2842 0.0000
vt 0.4758 0.0000 0.0000
# 18 texture coords

o Box001
g Box001
usemtl wire_176026026
s 2
f 57/50/57 58/51/58 59/52/59 60/53/60 
s 4
f 61/54/61 62/55/62 63/56/63 64/57/63 
s 8
f 57/54/57 60/55/60 62/58/62 61/59/61 
s 16
f 65/54/64 66/60/65 67/61/66 68/59/67 
s 32
f 69/54/68 70/53/69 71/62/70 72/59/71 
s 2
f 58/51/58 73/63/72 70/62/69 59/52/59 
s 4
f 67/51/66 72/63/71 71/58/70 63/56/63 
s 16
f 66/60/65 69/50/68 72/63/71 67/61/66 
s off
f 74/64/73 75/50/74 76/50/75 77/64/76 
f 78/54/77 74/64/73 77/64/76 79/54/78 
f 58/64/58 57/50/57 75/50/74 74/64/73 
f 57/50/57 80/50/79 76/50/75 75/50/74 
f 81/54/80 73/54/72 78/54/77 79/54/78 
f 73/54/72 58/64/58 74/64/73 78/54/77 
f 82/54/81 83/64/82 84/50/83 85/50/84 86/54/85 
s 1
f 73/63/72 81/59/80 80/50/79 57/50/57 
s 16
f 87/59/86 73/63/72 57/50/57 61/54/61 
s off
f 77/64/76 76/50/75 84/50/83 83/64/82 
f 76/50/75 88/50/87 85/50/84 84/50/83 
f 89/54/88 79/54/78 82/54/81 86/54/85 
f 79/54/78 77/64/76 83/64/82 82/54/81 
s 1
f 88/51/87 76/54/75 79/59/78 89/54/88 
s 2
f 81/50/80 79/59/78 76/54/75 80/54/79 
s off
f 90/51/89 91/57/90 92/57/91 93/51/92 
f 86/51/85 85/57/84 91/57/90 90/51/89 
f 94/51/93 86/51/85 90/51/89 93/51/92 
s 2
f 94/57/94 95/60/95 96/65/96 97/66/97 
f 96/65/96 88/50/87 89/54/88 97/66/97 
s off
f 98/51/98 99/57/99 100/57/100 101/51/101 
f 93/51/92 92/57/91 102/57/102 103/51/103 
f 92/57/91 104/57/104 105/57/105 102/57/102 
f 104/57/104 106/51/106 107/51/107 105/57/105 
f 106/51/106 93/51/92 103/51/103 107/51/107 
s 1
f 106/54/106 104/54/104 108/54/108 109/67/109 
f 108/54/108 95/54/95 94/50/94 109/67/109 
s 4
f 96/50/96 95/50/95 92/54/91 91/50/90 
s 2
f 59/52/59 66/57/65 65/54/64 60/53/60 
s 4
f 62/55/62 68/50/67 67/51/66 63/56/63 
s 8
f 60/55/60 65/50/64 68/63/67 62/58/62 
s 32
f 70/53/69 73/50/72 87/63/86 71/62/70 
s 2
f 70/62/69 69/59/68 66/57/65 59/52/59 
s 4
f 71/58/70 87/59/86 64/57/63 63/56/63 
s off
f 102/57/102 99/57/99 98/51/98 103/51/103 
f 105/57/105 100/57/100 99/57/99 102/57/102 
f 110/51/110 111/51/111 112/57/112 113/57/113 
f 103/51/103 98/51/98 101/51/101 107/51/107 
f 101/51/101 100/57/100 112/57/112 111/51/111 
f 100/57/100 105/57/105 113/57/113 112/57/112 
f 105/57/105 107/51/107 110/51/110 113/57/113 
f 107/51/107 101/51/101 111/51/111 110/51/110 
# 50 polygons

