# 3ds Max Wavefront OBJ Exporter v0.99 - (c)2007 guruware
# File Created: 28.12.2022 18:03:12

mtllib TorreReloj.mtl

#
# object Box001
#

v  -13.6690 0.0000 13.4347
v  -13.6690 0.0000 -13.3745
v  13.1402 0.0000 -13.3745
v  13.1402 0.0000 13.4347
v  -0.3324 76.1775 0.0981
v  -0.1965 76.1775 0.0981
v  -0.1965 76.1775 -0.0378
v  -0.3324 76.1775 -0.0378
v  13.1402 3.2414 13.4347
v  -13.6690 3.2414 13.4347
v  12.2323 3.6611 12.5269
v  -12.7612 3.6611 12.5269
v  -7.5412 6.7698 8.7713
v  7.0123 6.7698 8.7713
v  2.8856 24.1942 4.6446
v  -3.4145 24.1942 4.6446
v  -5.2752 26.6910 5.0409
v  4.7464 26.6910 5.0409
v  13.1402 37.7699 13.4347
v  -13.6690 37.7699 13.4347
v  -11.5547 39.8842 14.5880
v  11.0259 39.8842 14.5880
v  11.0259 55.9540 14.5880
v  -11.5547 55.9540 14.5880
v  13.1402 3.2414 -13.3745
v  12.2323 3.6611 -12.4666
v  7.6721 5.9973 8.0184
v  7.6721 5.9973 -7.9582
v  3.2844 24.5237 -3.5705
v  3.2844 24.5237 3.6308
v  4.7464 26.6910 -4.9807
v  13.1402 37.7699 -13.3745
v  18.1376 46.0851 0.7320
v  18.1376 46.0851 -8.0177
v  18.1376 49.7531 -8.0177
v  18.1376 49.7531 0.6794
v  -13.6690 3.2414 -13.3745
v  -12.7612 3.6611 -12.4666
v  7.5719 6.2036 -8.2526
v  -8.1007 6.2036 -8.2526
v  -3.7688 24.4946 -3.9207
v  3.2400 24.4946 -3.9207
v  -5.2752 26.6910 -4.9807
v  -13.6690 37.7699 -13.3745
v  1.4838 47.0463 -14.5277
v  0.2052 46.2480 -14.5277
v  0.1773 49.5902 -14.5277
v  1.4633 48.7919 -14.5277
v  -9.1985 6.7944 -7.5734
v  -9.1985 6.7944 7.6336
v  -4.6860 24.1889 3.5141
v  -4.6860 24.1889 -3.4538
v  -14.8223 39.6629 -11.4814
v  -14.8223 39.6629 11.5417
v  -14.8223 56.1753 11.5417
v  -14.8223 56.1753 -11.4814
v  10.7640 4.3399 11.0585
v  9.9508 4.7159 10.2454
v  -10.4797 4.7159 10.2454
v  -11.2928 4.3399 11.0585
v  10.7640 4.3399 -10.9983
v  9.9508 4.7159 -10.1851
v  -11.2928 4.3399 -10.9983
v  -10.4797 4.7159 -10.1851
v  12.2323 4.6221 12.5269
v  10.7640 5.3010 11.0585
v  -11.2928 5.3010 11.0585
v  -12.7612 4.6221 12.5269
v  12.2323 4.6221 -12.4666
v  10.7640 5.3010 -10.9983
v  -12.7612 4.6221 -12.4666
v  -11.2928 5.3010 -10.9983
v  7.0123 6.9913 9.7065
v  -7.5412 6.9913 9.7065
v  2.8856 24.4156 5.5798
v  -3.4145 24.4156 5.5798
v  9.5424 6.4403 8.0184
v  5.1548 24.9666 3.6308
v  9.5424 6.4403 -7.9582
v  5.1548 24.9666 -3.5705
v  7.5719 6.5580 -9.7489
v  3.2400 24.8489 -5.4170
v  -8.1007 6.5580 -9.7489
v  -3.7688 24.8489 -5.4170
v  -5.6212 24.3911 3.5141
v  -10.1337 6.9966 7.6336
v  -5.6212 24.3911 -3.4538
v  -10.1337 6.9966 -7.5734
v  -13.6690 58.0684 13.4347
v  13.1402 58.0684 13.4347
v  10.9486 58.0684 11.2432
v  -11.4775 58.0684 11.2432
v  13.1402 58.0684 -13.3745
v  10.9486 58.0684 -11.1829
v  -13.6690 58.0684 -13.3745
v  -11.4775 58.0684 -11.1829
v  10.9486 56.9151 11.2432
v  -11.4775 56.9151 11.2432
v  10.9486 56.9151 -11.1829
v  -11.4775 56.9151 -11.1829
v  5.5633 56.9151 5.8579
v  -6.0922 56.9151 5.8579
v  5.5633 56.9151 -5.7976
v  -6.0922 56.9151 -5.7976
v  11.7389 58.7581 12.0335
v  -12.2678 58.7581 12.0335
v  11.7389 58.7581 -11.9732
v  -12.2678 58.7581 -11.9732
v  -11.5547 55.9540 13.4347
v  11.0259 55.9540 13.4347
v  -11.5547 39.8842 13.4347
v  11.0259 39.8842 13.4347
v  -13.6690 56.1753 -11.4814
v  -13.6690 56.1753 11.5417
v  -13.6690 39.6629 -11.4814
v  -13.6690 39.6629 11.5417
v  13.1402 55.8268 11.1932
v  13.1402 55.8268 -11.1329
v  13.1402 40.0114 11.1932
v  13.1402 40.0114 -11.1329
v  10.8177 55.7459 -13.3745
v  -11.3465 55.7459 -13.3745
v  10.8177 40.0923 -13.3745
v  -11.3465 40.0923 -13.3745
v  14.2934 55.8268 11.1932
v  14.2934 55.8268 -11.1329
v  14.2934 40.0114 11.1932
v  14.2934 40.0114 -11.1329
v  10.8177 49.5902 -14.5277
v  9.4227 48.7919 -14.5277
v  -7.0333 49.5902 -14.5277
v  -11.3465 49.5902 -14.5277
v  10.8177 46.2480 -14.5277
v  -11.3465 46.2480 -14.5277
v  -7.0310 46.2480 -14.5277
v  9.4245 47.0463 -14.5277
v  14.2934 48.9062 10.6662
v  14.2934 48.9062 1.1696
v  14.2934 49.7531 0.6794
v  14.2934 49.7531 -8.0177
v  14.2934 46.9320 10.6662
v  14.2934 46.0851 -8.0177
v  14.2934 46.0851 0.7320
v  14.2934 46.9320 1.1791
v  18.1376 48.9062 1.1696
v  18.1376 48.9062 10.6662
v  18.1376 46.9320 10.6662
v  18.1376 46.9320 1.1791
v  1.4633 48.7919 -17.9875
v  9.4227 48.7919 -17.9875
v  9.4245 47.0463 -17.9875
v  1.4838 47.0463 -17.9875
v  0.2052 46.2480 -17.9875
v  -7.0310 46.2480 -17.9875
v  -7.0333 49.5902 -17.9875
v  0.1773 49.5902 -17.9875
# 156 vertices

vn -0.5774 -0.5774 0.5774
vn -0.5774 -0.5774 -0.5774
vn 0.5774 -0.5774 -0.5774
vn 0.5774 -0.5774 0.5774
vn -0.3723 0.8502 0.3723
vn 0.3723 0.8502 0.3723
vn 0.3723 0.8502 -0.3723
vn -0.3723 0.8502 -0.3723
vn 0.6177 0.4868 0.6177
vn -0.6177 0.4868 0.6177
vn 0.4602 0.7593 0.4602
vn -0.4602 0.7593 0.4602
vn 0.6449 0.6299 0.4329
vn -0.6449 0.6299 0.4329
vn -0.5027 -0.4786 0.7199
vn 0.5027 -0.4786 0.7199
vn -0.6706 -0.3539 0.6520
vn 0.6663 -0.3347 0.6663
vn 0.6638 -0.3447 0.6638
vn -0.6638 -0.3447 0.6638
vn 0.5774 0.5774 0.5774
vn -0.5774 0.5774 0.5774
vn 0.6177 0.4868 -0.6177
vn 0.4602 0.7593 -0.4602
vn 0.4329 0.6299 -0.6449
vn 0.4329 0.6299 0.6449
vn 0.7199 -0.4786 0.5027
vn 0.7199 -0.4786 -0.5027
vn 0.6663 -0.3347 -0.6663
vn 0.6638 -0.3447 -0.6638
vn 0.5766 -0.5736 0.5819
vn 0.5774 0.5774 -0.5774
vn 0.5781 0.5811 0.5728
vn -0.6177 0.4868 -0.6177
vn -0.4602 0.7593 -0.4602
vn -0.6449 0.6299 -0.4329
vn 0.6449 0.6299 -0.4329
vn 0.5027 -0.4786 -0.7199
vn -0.5027 -0.4786 -0.7199
vn -0.6706 -0.3539 -0.6520
vn -0.6638 -0.3447 -0.6638
vn -0.3018 -0.3053 -0.9032
vn 0.5800 -0.5751 0.5769
vn 0.5747 0.5795 0.5778
vn -0.3012 0.2977 -0.9059
vn -0.4318 0.6277 0.6478
vn -0.4318 0.6277 -0.6478
vn -0.7211 -0.4775 -0.5021
vn -0.7211 -0.4775 0.5021
vn -0.5774 0.5774 -0.5774
vn -0.5317 0.6592 -0.5317
vn 0.3934 0.8310 0.3934
vn -0.3957 0.8248 0.4039
vn 0.5317 0.6592 -0.5317
vn -0.5317 0.6592 0.5317
vn 0.3934 0.8310 -0.3934
vn 0.5317 0.6592 0.5317
vn -0.3957 0.8248 -0.4039
vn -0.1409 0.9800 -0.1409
vn 0.1409 0.9800 -0.1409
vn -0.1409 0.9800 0.1409
vn 0.1409 0.9800 0.1409
vn -0.2881 0.4374 0.8519
vn 0.2881 0.4374 0.8519
vn -0.2993 -0.1638 0.9400
vn 0.2993 -0.1638 0.9400
vn 0.8519 0.4374 -0.2881
vn 0.9400 -0.1638 -0.2992
vn 0.8519 0.4374 0.2881
vn 0.9400 -0.1638 0.2992
vn -0.2881 0.4374 -0.8519
vn -0.2992 -0.1638 -0.9400
vn 0.2881 0.4374 -0.8519
vn 0.2992 -0.1638 -0.9400
vn -0.9145 -0.1999 -0.3518
vn -0.8709 0.4331 -0.2321
vn -0.9145 -0.1999 0.3518
vn -0.8709 0.4331 0.2321
vn -0.3015 0.9045 -0.3015
vn 0.3015 0.9045 -0.3015
vn -0.3015 0.9045 0.3015
vn 0.3015 0.9045 0.3015
vn 0.6857 0.2441 0.6857
vn -0.6857 0.2441 0.6857
vn 0.6857 0.2441 -0.6857
vn -0.6857 0.2441 -0.6857
vn 0.6897 -0.2202 0.6897
vn -0.6897 -0.2202 0.6897
vn 0.6897 -0.2202 -0.6897
vn -0.6897 -0.2202 -0.6897
vn -0.3015 0.3015 0.9045
vn 0.3015 0.3015 0.9045
vn -0.3015 -0.3015 0.9045
vn 0.3015 -0.3015 0.9045
vn -0.9045 0.3015 -0.3015
vn -0.9045 0.3015 0.3015
vn -0.9045 -0.3015 -0.3015
vn -0.9045 -0.3015 0.3015
vn 0.9045 0.3015 0.3015
vn 0.9045 0.3015 -0.3015
vn 0.9045 -0.3015 0.3015
vn 0.9045 -0.3015 -0.3015
vn 0.0296 0.0462 -0.9985
vn -0.0296 0.0462 -0.9985
vn 0.0296 -0.0462 -0.9985
vn -0.0296 -0.0462 -0.9985
vn 0.6610 0.0920 -0.7447
vn 0.3015 0.3018 -0.9044
vn -0.2931 0.3955 -0.8705
vn -0.6869 0.0672 -0.7237
vn 0.6610 -0.0920 -0.7447
vn -0.6869 -0.0672 -0.7237
vn -0.2931 -0.3959 -0.8703
vn 0.3014 -0.3012 -0.9047
vn 0.9051 0.2999 -0.3014
vn -0.5781 0.5811 0.5728
vn -0.5766 -0.5736 0.5819
vn 0.9040 -0.3031 -0.3016
vn 0.5771 0.5761 -0.5789
vn 0.5776 -0.5786 -0.5758
vn -0.5810 0.5743 -0.5767
vn 0.5769 0.5777 -0.5775
vn 0.5776 -0.5771 -0.5773
vn -0.5737 -0.5804 -0.5780
vn 0.5800 -0.5751 -0.5769
vn -0.5771 -0.5776 -0.5774
vn -0.5775 0.5772 -0.5774
vn 0.5747 0.5795 -0.5778
# 128 vertex normals

vt 0.5162 0.6627 0.0000
vt 0.5162 0.8874 0.0000
vt 0.2914 0.8874 0.0000
vt 0.2914 0.6627 0.0000
vt 0.2030 0.5511 0.0000
vt 0.2022 0.5498 0.0000
vt 0.2035 0.5514 0.0000
vt 0.2044 0.5521 0.0000
vt 0.2930 0.8884 0.0000
vt 0.5174 0.9015 0.0000
vt 0.5158 0.9287 0.0000
vt 0.2914 0.9155 0.0000
vt 0.5077 0.9366 0.0000
vt 0.2986 0.9243 0.0000
vt 0.6107 0.0274 0.0000
vt 0.7263 0.0337 0.0000
vt 0.6841 0.1753 0.0000
vt 0.6360 0.1727 0.0000
vt 0.6149 0.1969 0.0000
vt 0.7020 0.2011 0.0000
vt 0.7674 0.3193 0.0000
vt 0.5411 0.3102 0.0000
vt 0.7917 0.8149 0.0000
vt 0.9724 0.8228 0.0000
vt 0.9667 0.9515 0.0000
vt 0.7860 0.9436 0.0000
vt 0.7684 0.0791 0.0000
vt 0.9791 0.0010 0.0000
vt 0.9886 0.0265 0.0000
vt 0.7778 0.1046 0.0000
vt 0.9843 0.0370 0.0000
vt 0.7879 0.1098 0.0000
vt 0.0368 0.0698 0.0000
vt 0.1525 0.0323 0.0000
vt 0.1635 0.1836 0.0000
vt 0.1146 0.1995 0.0000
vt 0.1035 0.2301 0.0000
vt 0.1891 0.2028 0.0000
vt 0.2905 0.2904 0.0000
vt 0.0739 0.3610 0.0000
vt 0.7979 0.7316 0.0000
vt 0.8426 0.7009 0.0000
vt 0.8597 0.7215 0.0000
vt 0.8145 0.7541 0.0000
vt 0.7684 0.1464 0.0000
vt 0.9930 0.1389 0.0000
vt 0.9939 0.1661 0.0000
vt 0.7693 0.1736 0.0000
vt 0.9866 0.1747 0.0000
vt 0.7772 0.1817 0.0000
vt 0.3263 0.3710 0.0000
vt 0.4475 0.3630 0.0000
vt 0.4213 0.5127 0.0000
vt 0.3700 0.5161 0.0000
vt 0.3524 0.5418 0.0000
vt 0.4411 0.5363 0.0000
vt 0.5184 0.6463 0.0000
vt 0.2914 0.6617 0.0000
vt 0.6238 0.8751 0.0000
vt 0.6332 0.8679 0.0000
vt 0.6359 0.8962 0.0000
vt 0.6252 0.8899 0.0000
vt 0.7776 0.5787 0.0000
vt 0.9990 0.6175 0.0000
vt 0.9943 0.6442 0.0000
vt 0.7729 0.6055 0.0000
vt 0.9854 0.6512 0.0000
vt 0.7790 0.6150 0.0000
vt 0.3888 0.0298 0.0000
vt 0.5083 0.0503 0.0000
vt 0.4503 0.1865 0.0000
vt 0.3977 0.1781 0.0000
vt 0.3767 0.2001 0.0000
vt 0.4627 0.2135 0.0000
vt 0.5153 0.3378 0.0000
vt 0.2914 0.3048 0.0000
vt 0.5644 0.6043 0.0000
vt 0.7469 0.6319 0.0000
vt 0.7269 0.7629 0.0000
vt 0.5445 0.7353 0.0000
vt 0.4937 0.9655 0.0000
vt 0.4865 0.9726 0.0000
vt 0.3155 0.9626 0.0000
vt 0.3091 0.9547 0.0000
vt 0.9831 0.0691 0.0000
vt 0.9793 0.0785 0.0000
vt 0.8187 0.1380 0.0000
vt 0.8097 0.1333 0.0000
vt 0.9753 0.2048 0.0000
vt 0.9687 0.2125 0.0000
vt 0.7975 0.2182 0.0000
vt 0.7905 0.2109 0.0000
vt 0.9681 0.6783 0.0000
vt 0.9601 0.6845 0.0000
vt 0.7914 0.6550 0.0000
vt 0.7860 0.6464 0.0000
vt 0.5073 0.9446 0.0000
vt 0.4942 0.9575 0.0000
vt 0.3096 0.9466 0.0000
vt 0.2981 0.9324 0.0000
vt 0.9871 0.0445 0.0000
vt 0.9803 0.0615 0.0000
vt 0.8069 0.1258 0.0000
vt 0.7907 0.1173 0.0000
vt 0.9868 0.1828 0.0000
vt 0.9750 0.1968 0.0000
vt 0.7902 0.2029 0.0000
vt 0.7774 0.1897 0.0000
vt 0.9840 0.6591 0.0000
vt 0.9695 0.6703 0.0000
vt 0.7874 0.6384 0.0000
vt 0.7776 0.6230 0.0000
vt 0.5819 0.0010 0.0000
vt 0.7585 0.0118 0.0000
vt 0.7327 0.0300 0.0000
vt 0.6054 0.0221 0.0000
vt 0.6886 0.1809 0.0000
vt 0.6305 0.1775 0.0000
vt 0.0010 0.0548 0.0000
vt 0.0235 0.0636 0.0000
vt 0.1087 0.2122 0.0000
vt 0.1754 0.0010 0.0000
vt 0.1618 0.0211 0.0000
vt 0.1747 0.1916 0.0000
vt 0.2962 0.3487 0.0000
vt 0.3171 0.3636 0.0000
vt 0.3627 0.5247 0.0000
vt 0.4760 0.3387 0.0000
vt 0.4569 0.3559 0.0000
vt 0.4288 0.5210 0.0000
vt 0.5401 0.0318 0.0000
vt 0.4542 0.1924 0.0000
vt 0.5151 0.0471 0.0000
vt 0.3918 0.1822 0.0000
vt 0.3659 0.0010 0.0000
vt 0.3841 0.0238 0.0000
vt 0.0010 0.7469 0.0000
vt 0.2249 0.6881 0.0000
vt 0.2119 0.7106 0.0000
vt 0.0235 0.7599 0.0000
vt 0.2837 0.9120 0.0000
vt 0.2612 0.8990 0.0000
vt 0.0598 0.9708 0.0000
vt 0.0728 0.9483 0.0000
vt 0.2070 0.7182 0.0000
vt 0.0311 0.7648 0.0000
vt 0.2536 0.8941 0.0000
vt 0.0776 0.9407 0.0000
vt 0.1755 0.7719 0.0000
vt 0.0848 0.7963 0.0000
vt 0.1999 0.8626 0.0000
vt 0.1092 0.8870 0.0000
vt 0.0010 0.4308 0.0000
vt 0.2556 0.3619 0.0000
vt 0.2528 0.3811 0.0000
vt 0.0216 0.4465 0.0000
vt 0.2864 0.6040 0.0000
vt 0.2468 0.5809 0.0000
vt 0.0562 0.6872 0.0000
vt 0.0762 0.6773 0.0000
vt 0.9891 0.9769 0.0000
vt 0.7611 0.9664 0.0000
vt 0.7795 0.9496 0.0000
vt 0.9721 0.9586 0.0000
vt 0.7693 0.7894 0.0000
vt 0.7863 0.8078 0.0000
vt 0.9974 0.8000 0.0000
vt 0.9790 0.8168 0.0000
vt 0.7450 0.7885 0.0000
vt 0.5193 0.7538 0.0000
vt 0.5373 0.7406 0.0000
vt 0.7316 0.7706 0.0000
vt 0.5464 0.5787 0.0000
vt 0.5597 0.5966 0.0000
vt 0.7720 0.6135 0.0000
vt 0.7540 0.6266 0.0000
vt 0.7923 0.5088 0.0000
vt 0.5729 0.5777 0.0000
vt 0.5852 0.5541 0.0000
vt 0.7686 0.4966 0.0000
vt 0.5193 0.4066 0.0000
vt 0.5432 0.4189 0.0000
vt 0.7397 0.3387 0.0000
vt 0.7274 0.3622 0.0000
vt 0.7601 0.9580 0.0000
vt 0.5290 0.9739 0.0000
vt 0.5473 0.9531 0.0000
vt 0.7393 0.9400 0.0000
vt 0.5193 0.8033 0.0000
vt 0.5399 0.8216 0.0000
vt 0.7477 0.7894 0.0000
vt 0.7296 0.8101 0.0000
vt 0.5894 0.5461 0.0000
vt 0.7611 0.4916 0.0000
vt 0.5508 0.4238 0.0000
vt 0.7233 0.3702 0.0000
vt 0.5526 0.9003 0.0000
vt 0.5632 0.8932 0.0000
vt 0.6941 0.8914 0.0000
vt 0.7273 0.8882 0.0000
vt 0.5511 0.8734 0.0000
vt 0.7255 0.8613 0.0000
vt 0.6911 0.8637 0.0000
vt 0.5623 0.8788 0.0000
vt 0.5765 0.4916 0.0000
vt 0.6489 0.4684 0.0000
vt 0.6548 0.4738 0.0000
vt 0.7220 0.4526 0.0000
vt 0.5717 0.4760 0.0000
vt 0.7133 0.4242 0.0000
vt 0.6450 0.4455 0.0000
vt 0.6438 0.4533 0.0000
vt 0.8868 0.3662 0.0000
vt 0.8227 0.4097 0.0000
vt 0.8141 0.4006 0.0000
vt 0.8781 0.3571 0.0000
vt 0.8844 0.7395 0.0000
vt 0.7906 0.7701 0.0000
vt 0.7729 0.7145 0.0000
vt 0.8680 0.6854 0.0000
vt 0.8139 0.4282 0.0000
vt 0.7932 0.3903 0.0000
vt 0.8868 0.3387 0.0000
vt 0.9075 0.3767 0.0000
vt 0.2649 0.0755 0.0000
vt 0.2219 0.0960 0.0000
vt 0.2121 0.0869 0.0000
vt 0.2560 0.0655 0.0000
vt 0.2072 0.0294 0.0000
vt 0.2523 0.0118 0.0000
vt 0.2658 0.0315 0.0000
vt 0.2208 0.0490 0.0000
vt 0.2852 0.0956 0.0000
vt 0.1950 0.1010 0.0000
vt 0.1927 0.0662 0.0000
vt 0.2827 0.0608 0.0000
vt 0.1927 0.0077 0.0000
vt 0.2750 0.0010 0.0000
vt 0.2803 0.0531 0.0000
vt 0.1982 0.0599 0.0000
# 240 texture coords

o Box001
g Box001
usemtl wire_088177027
s 2
f 1/1/1 2/2/2 3/3/3 4/4/4 
s 4
f 5/5/5 6/6/6 7/7/7 8/8/8 
s 8
f 1/9/1 4/10/4 9/11/9 10/12/10 
f 10/12/10 9/11/9 11/13/11 12/14/12 
f 13/15/13 14/16/14 15/17/15 16/18/16 
f 17/19/17 18/20/18 19/21/19 20/22/20 
f 21/23/1 22/24/4 23/25/21 24/26/22 
s 16
f 4/27/4 3/28/3 25/29/23 9/30/9 
f 9/30/9 25/29/23 26/31/24 11/32/11 
f 27/33/25 28/34/26 29/35/27 30/36/28 
f 18/37/18 31/38/29 32/39/30 19/40/19 
f 33/41/31 34/42/3 35/43/32 36/44/33 
s 32
f 3/45/3 2/46/2 37/47/34 25/48/23 
f 25/48/23 37/47/34 38/49/35 26/50/24 
f 39/51/36 40/52/37 41/53/38 42/54/39 
f 31/55/29 43/56/40 44/57/41 32/58/30 
f 45/59/42 46/60/43 47/61/44 48/62/45 
s 64
f 2/63/2 1/64/1 10/65/10 37/66/34 
f 37/66/34 10/65/10 12/67/12 38/68/35 
f 49/69/46 50/70/47 51/71/48 52/72/49 
f 43/73/40 17/74/17 20/75/20 44/76/41 
f 53/77/2 54/78/1 55/79/22 56/80/50 
s 8
f 57/81/51 58/82/52 59/83/53 60/84/54 
s 16
f 61/85/55 62/86/56 58/87/52 57/88/51 
s 32
f 63/89/57 64/90/58 62/91/56 61/92/55 
s 64
f 60/93/54 59/94/53 64/95/58 63/96/57 
s 8
f 65/97/9 66/98/59 67/99/60 68/100/10 
s 16
f 69/101/23 70/102/61 66/103/59 65/104/9 
s 32
f 71/105/34 72/106/62 70/107/61 69/108/23 
s 64
f 68/109/10 67/110/60 72/111/62 71/112/34 
s off
f 57/81/51 60/84/54 67/99/60 66/98/59 
f 60/93/54 63/96/57 72/111/62 67/110/60 
f 63/89/57 61/92/55 70/107/61 72/106/62 
f 61/85/55 57/88/51 66/103/59 70/102/61 
f 12/14/12 11/13/11 65/97/9 68/100/10 
f 11/32/11 26/31/24 69/101/23 65/104/9 
f 26/50/24 38/49/35 71/105/34 69/108/23 
f 38/68/35 12/67/12 68/109/10 71/112/34 
f 59/113/53 58/114/52 73/115/63 74/116/64 
f 58/114/52 18/20/18 75/117/65 73/115/63 
f 18/20/18 17/19/17 76/118/66 75/117/65 
f 17/19/17 59/113/53 74/116/64 76/118/66 
f 18/37/18 58/119/52 77/120/67 78/121/68 
f 58/119/52 62/122/56 79/123/69 77/120/67 
f 62/122/56 31/38/29 80/124/70 79/123/69 
f 31/38/29 18/37/18 78/121/68 80/124/70 
f 31/55/29 62/125/56 81/126/71 82/127/72 
f 62/125/56 64/128/58 83/129/73 81/126/71 
f 64/128/58 43/56/40 84/130/74 83/129/73 
f 43/56/40 31/55/29 82/127/72 84/130/74 
f 59/131/53 17/74/17 85/132/75 86/133/76 
f 17/74/17 43/73/40 87/134/77 85/132/75 
f 43/73/40 64/135/58 88/136/78 87/134/77 
f 64/135/58 59/131/53 86/133/76 88/136/78 
f 86/133/76 85/132/75 51/71/48 50/70/47 
f 85/132/75 87/134/77 52/72/49 51/71/48 
f 87/134/77 88/136/78 49/69/46 52/72/49 
f 88/136/78 86/133/76 50/70/47 49/69/46 
f 82/127/72 81/126/71 39/51/36 42/54/39 
f 81/126/71 83/129/73 40/52/37 39/51/36 
f 83/129/73 84/130/74 41/53/38 40/52/37 
f 84/130/74 82/127/72 42/54/39 41/53/38 
f 78/121/68 77/120/67 27/33/25 30/36/28 
f 77/120/67 79/123/69 28/34/26 27/33/25 
f 79/123/69 80/124/70 29/35/27 28/34/26 
f 80/124/70 78/121/68 30/36/28 29/35/27 
f 74/116/64 73/115/63 14/16/14 13/15/13 
f 73/115/63 75/117/65 15/17/15 14/16/14 
f 75/117/65 76/118/66 16/18/16 15/17/15 
f 76/118/66 74/116/64 13/15/13 16/18/16 
f 89/137/22 90/138/21 91/139/79 92/140/80 
f 90/138/21 93/141/32 94/142/81 91/139/79 
f 93/141/32 95/143/50 96/144/82 94/142/81 
f 95/143/50 89/137/22 92/140/80 96/144/82 
f 92/140/80 91/139/79 97/145/50 98/146/32 
f 91/139/79 94/142/81 99/147/22 97/145/50 
f 94/142/81 96/144/82 100/148/21 99/147/22 
f 96/144/82 92/140/80 98/146/32 100/148/21 
f 98/146/32 97/145/50 101/149/83 102/150/84 
f 97/145/50 99/147/22 103/151/85 101/149/83 
f 99/147/22 100/148/21 104/152/86 103/151/85 
f 100/148/21 98/146/32 102/150/84 104/152/86 
f 102/153/84 101/154/83 105/155/87 106/156/88 
f 101/154/83 103/157/85 107/158/89 105/155/87 
f 103/157/85 104/159/86 108/160/90 107/158/89 
f 104/159/86 102/153/84 106/156/88 108/160/90 
f 106/156/88 105/155/87 6/6/6 5/5/5 
f 105/155/87 107/158/89 7/7/7 6/6/6 
f 107/158/89 108/160/90 8/8/8 7/7/7 
f 108/160/90 106/156/88 5/5/5 8/8/8 
f 90/161/21 89/162/22 109/163/91 110/164/92 
f 89/162/22 20/165/20 111/166/93 109/163/91 
f 20/165/20 19/167/19 112/168/94 111/166/93 
f 19/167/19 90/161/21 110/164/92 112/168/94 
f 89/169/22 95/170/50 113/171/95 114/172/96 
f 95/170/50 44/173/41 115/174/97 113/171/95 
f 44/173/41 20/175/20 116/176/98 115/174/97 
f 20/175/20 89/169/22 114/172/96 116/176/98 
f 93/177/32 90/178/21 117/179/99 118/180/100 
f 90/178/21 19/181/19 119/182/101 117/179/99 
f 19/181/19 32/183/30 120/184/102 119/182/101 
f 32/183/30 93/177/32 118/180/100 120/184/102 
f 95/185/50 93/186/32 121/187/103 122/188/104 
f 93/186/32 32/189/30 123/190/105 121/187/103 
f 32/189/30 44/191/41 124/192/106 123/190/105 
f 44/191/41 95/185/50 122/188/104 124/192/106 
f 110/164/92 109/163/91 24/26/22 23/25/21 
f 109/163/91 111/166/93 21/23/1 24/26/22 
f 111/166/93 112/168/94 22/24/4 21/23/1 
f 112/168/94 110/164/92 23/25/21 22/24/4 
f 118/180/100 117/179/99 125/193/21 126/194/32 
f 117/179/99 119/182/101 127/195/4 125/193/21 
f 119/182/101 120/184/102 128/196/3 127/195/4 
f 120/184/102 118/180/100 126/194/32 128/196/3 
f 122/188/104 121/187/103 129/197/107 130/198/108 48/62/45 47/61/44 131/199/109 132/200/110 
f 121/187/103 123/190/105 133/201/111 129/197/107 
f 123/190/105 124/192/106 134/202/112 135/203/113 46/60/43 45/59/42 136/204/114 133/201/111 
f 124/192/106 122/188/104 132/200/110 134/202/112 
f 114/172/96 113/171/95 56/80/50 55/79/22 
f 113/171/95 115/174/97 53/77/2 56/80/50 
f 115/174/97 116/176/98 54/78/1 53/77/2 
f 116/176/98 114/172/96 55/79/22 54/78/1 
f 126/194/32 125/193/21 137/205/99 138/206/115 139/207/116 140/208/100 
f 125/193/21 127/195/4 141/209/101 137/205/99 
f 127/195/4 128/196/3 142/210/102 143/211/117 144/212/118 141/209/101 
f 128/196/3 126/194/32 140/208/100 142/210/102 
s 16
f 139/207/116 138/206/115 144/212/118 143/211/117 
f 145/213/119 146/214/21 147/215/4 148/216/120 
s off
f 140/217/100 139/218/116 36/44/33 35/43/32 
f 139/218/116 143/219/117 33/41/31 36/44/33 
f 143/219/117 142/220/102 34/42/3 33/41/31 
f 142/220/102 140/217/100 35/43/32 34/42/3 
f 137/221/99 141/222/101 147/215/4 146/214/21 
f 141/222/101 144/223/118 148/216/120 147/215/4 
f 144/223/118 138/224/115 145/213/119 148/216/120 
f 138/224/115 137/221/99 146/214/21 145/213/119 
s 32
f 149/225/121 150/226/122 151/227/123 152/228/124 
f 153/229/125 154/230/126 155/231/127 156/232/128 
f 135/203/113 134/202/112 132/200/110 131/199/109 
f 130/198/108 129/197/107 133/201/111 136/204/114 
s off
f 48/233/45 130/234/108 150/226/122 149/225/121 
f 130/234/108 136/235/114 151/227/123 150/226/122 
f 136/235/114 45/236/42 152/228/124 151/227/123 
f 45/236/42 48/233/45 149/225/121 152/228/124 
f 46/237/43 135/238/113 154/230/126 153/229/125 
f 135/238/113 131/239/109 155/231/127 154/230/126 
f 131/239/109 47/240/44 156/232/128 155/231/127 
f 47/240/44 46/237/43 153/229/125 156/232/128 
# 148 polygons

