# 3ds Max Wavefront OBJ Exporter v0.99 - (c)2007 guruware
# File Created: 26.12.2022 12:11:44

mtllib valla.mtl

#
# object Box001
#

v  -1.4710 0.0000 2.4196
v  -1.4710 0.0000 -2.4281
v  1.3669 0.0000 -2.4281
v  1.3669 0.0000 2.4196
v  -1.4710 16.0043 2.4196
v  1.3669 16.0043 2.4196
v  1.3669 16.0043 -2.4281
v  -1.4710 16.0043 -2.4281
v  1.3669 3.2009 2.4196
v  -1.4710 3.2009 2.4196
v  -0.9274 4.0008 19.0340
v  0.8233 4.0008 19.0340
v  0.8233 5.6018 19.0340
v  -0.9274 5.6018 19.0340
v  -1.4710 6.4017 2.4196
v  1.3669 6.4017 2.4196
v  1.3669 9.6026 2.4196
v  -1.4710 9.6026 2.4196
v  -1.7234 -0.2477 24.5708
v  1.6193 -0.2477 24.5708
v  1.6193 12.7315 24.5708
v  -1.7234 12.7315 24.5708
v  -1.4710 12.8034 2.4196
v  1.3669 12.8034 2.4196
v  1.3669 3.2009 -2.4281
v  1.3669 6.4017 -2.4281
v  1.3669 9.6026 -2.4281
v  1.3669 12.8034 -2.4281
v  -1.4710 3.2009 -2.4281
v  -1.4710 6.4017 -2.4281
v  -1.4710 9.6026 -2.4281
v  -1.4710 12.8034 -2.4281
v  0.8233 4.0008 2.4196
v  -0.9274 4.0008 2.4196
v  0.8233 5.6018 2.4196
v  -0.9274 5.6018 2.4196
v  0.8233 10.4026 2.4795
v  -0.9274 10.4026 2.4795
v  0.8233 12.0035 2.4795
v  -0.9274 12.0035 2.4795
v  0.8233 10.4026 18.9191
v  -0.9274 10.4026 18.9191
v  0.8233 12.0035 18.9191
v  -0.9274 12.0035 18.9191
v  -1.7234 -0.2477 18.9284
v  1.6193 -0.2477 18.9284
v  1.6193 12.7315 18.9284
v  1.6193 16.0618 18.9284
v  -1.7234 16.0618 18.9284
v  -1.7234 16.0618 24.5708
v  1.6193 16.0618 24.5708
v  -1.7234 12.7315 18.9284
v  1.6193 15.5598 18.9284
v  1.6193 15.5598 24.5708
# 54 vertices

vn -0.5774 -0.5774 0.5774
vn -0.5774 -0.5774 -0.5774
vn 0.5774 -0.5774 -0.5774
vn 0.5774 -0.5774 0.5774
vn -0.5774 0.5774 0.5774
vn 0.5774 0.5774 0.5774
vn 0.5774 0.5774 -0.5774
vn -0.5774 0.5774 -0.5774
vn 0.7071 0.0000 0.7071
vn -0.7071 0.0000 0.7071
vn 0.7128 -0.0113 0.7012
vn -0.7128 -0.0113 0.7012
vn 0.3015 -0.3015 0.9045
vn -0.7128 0.0113 0.7012
vn 0.7128 0.0113 0.7012
vn 0.7071 0.0000 -0.7071
vn -0.7071 0.0000 -0.7071
vn -0.3015 -0.3015 0.9045
vn 0.3015 0.3015 0.9045
vn -0.3015 0.3015 0.9045
vn 0.3254 -0.3254 0.8879
vn -0.3254 -0.3254 0.8879
vn 0.3254 0.3254 0.8879
vn -0.3254 0.3254 0.8879
vn 0.3051 -0.3014 -0.9034
vn -0.3051 -0.3014 -0.9034
vn 0.3035 0.3062 -0.9023
vn -0.3035 0.3062 -0.9023
vn -0.5774 -0.5775 -0.5771
vn 0.5774 -0.5775 -0.5771
vn 0.3028 -0.3003 -0.9045
vn -0.7079 0.0014 -0.7063
vn 1.0000 0.0000 -0.0000
# 33 vertex normals

vt 1.0000 0.0000 0.0000
vt 1.0000 1.0000 0.0000
vt 0.0000 1.0000 0.0000
vt 0.0000 0.0000 0.0000
vt 1.0000 0.2000 0.0000
vt 0.0000 0.2000 0.0000
vt 1.0000 0.4000 0.0000
vt 0.0000 0.4000 0.0000
vt 1.0000 0.6000 0.0000
vt 0.0000 0.6000 0.0000
vt 1.0000 0.8000 0.0000
vt 0.0000 0.8000 0.0000
# 12 texture coords

o Box001
g Box001
usemtl wire_153228184
s 2
f 1/1/1 2/2/2 3/3/3 4/4/4 
s 4
f 5/4/5 6/1/6 7/2/7 8/3/8 
s 8
f 1/4/1 4/1/4 9/5/9 10/6/10 
f 11/6/1 12/5/4 13/7/6 14/8/5 
f 15/8/10 16/7/9 17/9/11 18/10/12 
f 19/10/1 20/9/4 21/11/13 22/12/10 
f 23/12/14 24/11/15 6/2/6 5/3/5 
s 16
f 4/4/4 3/1/3 25/5/16 9/6/9 
f 9/6/9 25/5/16 26/7/16 16/8/9 
f 16/8/9 26/7/16 27/9/16 17/10/11 
f 17/10/11 27/9/16 28/11/16 24/12/15 
f 24/12/15 28/11/16 7/2/7 6/3/6 
s 32
f 3/4/3 2/1/2 29/5/17 25/6/16 
f 25/6/16 29/5/17 30/7/17 26/8/16 
f 26/8/16 30/7/17 31/9/17 27/10/16 
f 27/10/16 31/9/17 32/11/17 28/12/16 
f 28/12/16 32/11/17 8/2/8 7/3/7 
s 64
f 2/4/2 1/1/1 10/5/10 29/6/17 
f 29/6/17 10/5/10 15/7/10 30/8/17 
f 30/8/17 15/7/10 18/9/12 31/10/17 
f 31/10/17 18/9/12 23/11/14 32/12/17 
f 32/12/17 23/11/14 5/2/5 8/3/8 
s off
f 10/6/10 9/5/9 33/5/13 34/6/18 
f 9/5/9 16/7/9 35/7/19 33/5/13 
f 16/7/9 15/8/10 36/8/20 35/7/19 
f 15/8/10 10/6/10 34/6/18 36/8/20 
f 18/10/12 17/9/11 37/9/21 38/10/22 
f 17/9/11 24/11/15 39/11/23 37/9/21 
f 24/11/15 23/12/14 40/12/24 39/11/23 
f 23/12/14 18/10/12 38/10/22 40/12/24 
f 34/6/18 33/5/13 12/5/4 11/6/1 
f 33/5/13 35/7/19 13/7/6 12/5/4 
f 35/7/19 36/8/20 14/8/5 13/7/6 
f 36/8/20 34/6/18 11/6/1 14/8/5 
f 38/10/22 37/9/21 41/9/25 42/10/26 
f 37/9/21 39/11/23 43/11/27 41/9/25 
f 39/11/23 40/12/24 44/12/28 43/11/27 
f 40/12/24 38/10/22 42/10/26 44/12/28 
f 45/10/29 46/9/30 20/9/4 19/10/1 
f 46/9/30 47/11/31 21/11/13 20/9/4 
f 48/11/7 49/12/8 50/12/5 51/11/6 
f 52/12/32 45/10/29 19/10/1 22/12/10 
f 41/9/25 46/9/30 45/10/29 42/10/26 
f 43/11/27 47/11/31 46/9/30 41/9/25 
f 44/12/28 52/12/32 47/11/31 43/11/27 
f 42/10/26 45/10/29 52/12/32 44/12/28 
f 47/11/31 52/12/32 49/12/8 48/11/7 
f 52/12/32 22/12/10 50/12/5 49/12/8 
f 22/12/10 21/11/13 51/11/6 50/12/5 
f 21/11/7 47/11/6 53/11/33 54/11/33 
f 21/11/13 47/11/31 47/11/6 21/11/7 
f 47/11/31 48/11/7 53/11/33 47/11/6 
f 48/11/7 51/11/6 54/11/33 53/11/33 
f 51/11/6 21/11/13 21/11/7 54/11/33 
# 54 polygons

